<svg xmlns="http://www.w3.org/2000/svg" xmlns:svg="http://www.w3.org/2000/svg" id="svg2" width="93.721" height="56.341" version="1.1" viewBox="0 0 93.721 56.341"><defs id="defs6"><clipPath id="clipPath3408" clipPathUnits="userSpaceOnUse"><path id="path3406" d="m 1264.007,1694.367 v -0.036 -23.515 -3.677 -0.822 h -0.127 c -0.668,-3.253 -2.545,-6.057 -5.131,-7.951 v 0 c 2.502,-0.252 4.279,0.169 4.279,0.169 v 0 c 0.325,0.079 0.645,0.171 0.951,0.27 v 0 c 0.156,0.05 0.304,0.099 0.453,0.156 v 0 c 0.15,0.05 0.291,0.107 0.441,0.171 v 0 c 0.113,0.05 0.226,0.099 0.341,0.149 v 0 c 1.051,0.476 1.966,1.065 2.746,1.711 v 0 c 0.086,0.064 0.171,0.135 0.257,0.213 v 0 c 0.304,0.255 0.589,0.525 0.851,0.795 v 0 c 0.15,0.15 0.291,0.313 0.434,0.468 v 0 c 1.483,1.719 2.384,3.884 2.513,6.149 v 0 c 0.014,0.177 0.021,0.355 0.021,0.539 v 0 25.175 0.036 z"/></clipPath><linearGradient id="linearGradient3418" x1="0" x2="1" y1="0" y2="0" gradientTransform="matrix(14.568691,-1002.3607,-1002.3607,-14.568691,1256.4802,2289.5474)" gradientUnits="userSpaceOnUse" spreadMethod="pad"><stop style="stop-opacity:1;stop-color:#e100ff" id="stop3414" offset="0"/><stop style="stop-opacity:1;stop-color:#7f00ff" id="stop3416" offset="1"/></linearGradient><clipPath id="clipPath3428" clipPathUnits="userSpaceOnUse"><path id="path3426" d="m 1244.409,1700.369 v -20.095 -5.612 c 0,-0.565 0.029,-1.125 0.086,-1.679 v 0 c 0.164,-1.601 0.637,-3.155 1.289,-4.625 v 0 c 0.663,-1.495 1.543,-2.89 2.615,-4.124 v 0 c 1.316,-1.513 2.479,-2.602 3.145,-3.089 v 0 c 0.831,-0.611 1.669,-1.1 2.507,-1.484 v 0 c 1.717,-0.797 3.388,-1.161 4.823,-1.305 v 0 c 2.586,1.894 4.463,4.697 5.131,7.95 v 0 h -0.377 -2.84 c -0.873,0 -1.704,0.136 -2.485,0.377 v 0 c -0.781,0.248 -1.512,0.603 -2.18,1.05 v 0 c -1.334,0.902 -2.4,2.187 -3.031,3.678 v 0 c -0.419,1 -0.654,2.087 -0.66,3.251 v 0 7.397 18.31 z"/></clipPath><linearGradient id="linearGradient3438" x1="0" x2="1" y1="0" y2="0" gradientTransform="matrix(0.613565,-42.214737,-42.214737,-0.613565,1253.77,1700.5054)" gradientUnits="userSpaceOnUse" spreadMethod="pad"><stop style="stop-opacity:1;stop-color:#7f00ff" id="stop3434" offset="0"/><stop style="stop-opacity:1;stop-color:#e100ff" id="stop3436" offset="1"/></linearGradient><clipPath id="clipPath3448" clipPathUnits="userSpaceOnUse"><path id="path3446" d="m 1226.276,1700.535 v -10e-4 h -1.846 l 0.017,-22.039 c 2.412,-4.936 6.646,-8.816 11.827,-10.767 v 0 c -1.285,0.879 -2.318,2.109 -2.953,3.541 v 0 c -0.441,0.997 -0.695,2.09 -0.712,3.263 v 0 l -0.283,17.801 7.412,0.117 -0.131,8.085 h -13.328 z"/></clipPath><linearGradient id="linearGradient3458" x1="0" x2="1" y1="0" y2="0" gradientTransform="matrix(1.266194,-87.117165,-87.117165,-1.266194,1231.5834,1720.2518)" gradientUnits="userSpaceOnUse" spreadMethod="pad"><stop style="stop-opacity:1;stop-color:#e100ff" id="stop3454" offset="0"/><stop style="stop-opacity:1;stop-color:#7f00ff" id="stop3456" offset="1"/></linearGradient><clipPath id="clipPath3468" clipPathUnits="userSpaceOnUse"><path id="path3466" d="m 1224.427,1700.534 0.014,-22.037 c 2.415,-4.942 6.646,-8.817 11.829,-10.77 v 0 c -1.286,0.88 -2.315,2.109 -2.955,3.543 v 0 c -0.439,0.994 -0.695,2.086 -0.709,3.266 v 0 l -0.284,17.798 7.412,0.113 -0.129,8.087 z"/></clipPath><linearGradient id="linearGradient3478" x1="0" x2="1" y1="0" y2="0" gradientTransform="matrix(2.5282583,-27.810997,-27.810997,-2.5282583,1231.0062,1700.7079)" gradientUnits="userSpaceOnUse" spreadMethod="pad"><stop style="stop-opacity:1;stop-color:#7f00ff" id="stop3474" offset="0"/><stop style="stop-opacity:1;stop-color:#e100ff" id="stop3476" offset="1"/></linearGradient><clipPath id="clipPath3488" clipPathUnits="userSpaceOnUse"><path id="path3486" d="m 1224.507,1674.381 c 0.029,-1.699 0.316,-3.347 0.824,-4.893 v 0 c 0.508,-1.546 1.238,-2.985 2.147,-4.288 v 0 c 1.823,-2.602 8.66,-6.914 9.311,-6.914 v 0 c 1.329,0 10.698,0.044 11.934,0.01 v 0 c 0.334,-0.01 0.668,-0.01 1.004,0 v 0 h 1.124 c -0.158,0.098 -0.318,0.204 -0.481,0.316 v 0 c -2.629,1.797 -4.138,3.975 -4.891,5.256 v 0 c -0.457,0.777 -0.85,1.59 -1.174,2.442 v 0 c -2.597,0.057 -5.243,0.148 -5.653,0.267 v 0 c -0.789,0.23 -1.539,0.577 -2.217,1.02 v 0 c -0.056,0.037 -0.109,0.078 -0.164,0.115 v 0 c -5.181,1.952 -9.415,5.831 -11.827,10.768 v 0 l 0.063,-4.092 z"/></clipPath><linearGradient id="linearGradient3498" x1="0" x2="1" y1="0" y2="0" gradientTransform="matrix(1.265195,-87.048431,-87.048431,-1.265195,1236.8933,1720.2651)" gradientUnits="userSpaceOnUse" spreadMethod="pad"><stop style="stop-opacity:1;stop-color:#e100ff" id="stop3494" offset="0"/><stop style="stop-opacity:1;stop-color:#7f00ff" id="stop3496" offset="1"/></linearGradient><clipPath id="clipPath3508" clipPathUnits="userSpaceOnUse"><path id="path3506" d="m 1279.541,1700.512 -0.129,-8.085 7.412,-0.116 -0.283,-17.802 c -0.018,-1.172 -0.272,-2.265 -0.712,-3.262 v 0 c -0.635,-1.433 -1.67,-2.661 -2.954,-3.542 v 0 c 5.182,1.952 9.416,5.831 11.828,10.768 v 0 l 0.015,22.038 h -1.845 v 10e-4 h -13.329 z"/></clipPath><linearGradient id="linearGradient3518" x1="0" x2="1" y1="0" y2="0" gradientTransform="matrix(-1.266194,-87.117165,87.117165,-1.266194,1287.563,1720.2296)" gradientUnits="userSpaceOnUse" spreadMethod="pad"><stop style="stop-opacity:1;stop-color:#e100ff" id="stop3514" offset="0"/><stop style="stop-opacity:1;stop-color:#7f00ff" id="stop3516" offset="1"/></linearGradient><clipPath id="clipPath3528" clipPathUnits="userSpaceOnUse"><path id="path3526" d="m 1279.54,1700.511 -0.128,-8.085 7.412,-0.115 -0.284,-17.798 c -0.013,-1.178 -0.27,-2.272 -0.71,-3.265 v 0 c -0.639,-1.435 -1.668,-2.662 -2.953,-3.543 v 0 c 5.182,1.952 9.414,5.829 11.828,10.77 v 0 l 0.013,22.036 z"/></clipPath><linearGradient id="linearGradient3538" x1="0" x2="1" y1="0" y2="0" gradientTransform="matrix(-2.5282509,-27.810915,27.810915,-2.5282509,1288.14,1700.6855)" gradientUnits="userSpaceOnUse" spreadMethod="pad"><stop style="stop-opacity:1;stop-color:#7f00ff" id="stop3534" offset="0"/><stop style="stop-opacity:1;stop-color:#e100ff" id="stop3536" offset="1"/></linearGradient><clipPath id="clipPath3548" clipPathUnits="userSpaceOnUse"><path id="path3546" d="m 1282.875,1667.705 c -0.056,-0.037 -0.108,-0.078 -0.164,-0.115 v 0 c -0.679,-0.443 -1.427,-0.79 -2.217,-1.02 v 0 c -0.409,-0.119 -3.056,-0.21 -5.653,-0.267 v 0 c -0.323,-0.852 -0.717,-1.665 -1.173,-2.442 v 0 c -0.754,-1.281 -2.264,-3.459 -4.892,-5.256 v 0 c -0.163,-0.112 -0.323,-0.218 -0.481,-0.316 v 0 h 1.123 c 0.337,-0.01 0.671,0 1.005,0 v 0 c 1.236,0.037 10.605,-0.01 11.935,-0.01 v 0 c 0.65,0 7.488,4.312 9.311,6.914 v 0 c 0.908,1.303 1.638,2.742 2.147,4.288 v 0 c 0.507,1.546 0.794,3.194 0.822,4.893 v 0 l 0.065,4.092 c -2.412,-4.937 -6.646,-8.816 -11.828,-10.768"/></clipPath><linearGradient id="linearGradient3558" x1="0" x2="1" y1="0" y2="0" gradientTransform="matrix(-1.2651951,-87.048439,87.048439,-1.2651951,1282.2529,1720.2651)" gradientUnits="userSpaceOnUse" spreadMethod="pad"><stop style="stop-opacity:1;stop-color:#e100ff" id="stop3554" offset="0"/><stop style="stop-opacity:1;stop-color:#7f00ff" id="stop3556" offset="1"/></linearGradient></defs><g id="g10" transform="matrix(1.3333333,0,0,-1.3333333,-1632.5694,2267.3799)"><g id="g3402"><g id="g3404" clip-path="url(#clipPath3408)"><g id="g3410"><g id="g3412"><path d="m 1264.007,1694.367 v -0.036 -23.515 -3.677 -0.822 h -0.127 c -0.668,-3.253 -2.545,-6.057 -5.131,-7.951 v 0 c 2.502,-0.252 4.279,0.169 4.279,0.169 v 0 c 0.325,0.079 0.645,0.171 0.951,0.27 v 0 c 0.156,0.05 0.304,0.099 0.453,0.156 v 0 c 0.15,0.05 0.291,0.107 0.441,0.171 v 0 c 0.113,0.05 0.226,0.099 0.341,0.149 v 0 c 1.051,0.476 1.966,1.065 2.746,1.711 v 0 c 0.086,0.064 0.171,0.135 0.257,0.213 v 0 c 0.304,0.255 0.589,0.525 0.851,0.795 v 0 c 0.15,0.15 0.291,0.313 0.434,0.468 v 0 c 1.483,1.719 2.384,3.884 2.513,6.149 v 0 c 0.014,0.177 0.021,0.355 0.021,0.539 v 0 25.175 0.036 z" style="fill:url(#linearGradient3418);stroke:none" id="path3420"/></g></g></g></g><g id="g3422"><g id="g3424" clip-path="url(#clipPath3428)"><g id="g3430"><g id="g3432"><path d="m 1244.409,1700.369 v -20.095 -5.612 c 0,-0.565 0.029,-1.125 0.086,-1.679 v 0 c 0.164,-1.601 0.637,-3.155 1.289,-4.625 v 0 c 0.663,-1.495 1.543,-2.89 2.615,-4.124 v 0 c 1.316,-1.513 2.479,-2.602 3.145,-3.089 v 0 c 0.831,-0.611 1.669,-1.1 2.507,-1.484 v 0 c 1.717,-0.797 3.388,-1.161 4.823,-1.305 v 0 c 2.586,1.894 4.463,4.697 5.131,7.95 v 0 h -0.377 -2.84 c -0.873,0 -1.704,0.136 -2.485,0.377 v 0 c -0.781,0.248 -1.512,0.603 -2.18,1.05 v 0 c -1.334,0.902 -2.4,2.187 -3.031,3.678 v 0 c -0.419,1 -0.654,2.087 -0.66,3.251 v 0 7.397 18.31 z" style="fill:url(#linearGradient3438);stroke:none" id="path3440"/></g></g></g></g><g id="g3442"><g id="g3444" clip-path="url(#clipPath3448)"><g id="g3450"><g id="g3452"><path d="m 1226.276,1700.535 v -10e-4 h -1.846 l 0.017,-22.039 c 2.412,-4.936 6.646,-8.816 11.827,-10.767 v 0 c -1.285,0.879 -2.318,2.109 -2.953,3.541 v 0 c -0.441,0.997 -0.695,2.09 -0.712,3.263 v 0 l -0.283,17.801 7.412,0.117 -0.131,8.085 h -13.328 z" style="fill:url(#linearGradient3458);stroke:none" id="path3460"/></g></g></g></g><g id="g3462"><g id="g3464" clip-path="url(#clipPath3468)"><g id="g3470"><g id="g3472"><path d="m 1224.427,1700.534 0.014,-22.037 c 2.415,-4.942 6.646,-8.817 11.829,-10.77 v 0 c -1.286,0.88 -2.315,2.109 -2.955,3.543 v 0 c -0.439,0.994 -0.695,2.086 -0.709,3.266 v 0 l -0.284,17.798 7.412,0.113 -0.129,8.087 z" style="fill:url(#linearGradient3478);stroke:none" id="path3480"/></g></g></g></g><g id="g3482"><g id="g3484" clip-path="url(#clipPath3488)"><g id="g3490"><g id="g3492"><path d="m 1224.507,1674.381 c 0.029,-1.699 0.316,-3.347 0.824,-4.893 v 0 c 0.508,-1.546 1.238,-2.985 2.147,-4.288 v 0 c 1.823,-2.602 8.66,-6.914 9.311,-6.914 v 0 c 1.329,0 10.698,0.044 11.934,0.01 v 0 c 0.334,-0.01 0.668,-0.01 1.004,0 v 0 h 1.124 c -0.158,0.098 -0.318,0.204 -0.481,0.316 v 0 c -2.629,1.797 -4.138,3.975 -4.891,5.256 v 0 c -0.457,0.777 -0.85,1.59 -1.174,2.442 v 0 c -2.597,0.057 -5.243,0.148 -5.653,0.267 v 0 c -0.789,0.23 -1.539,0.577 -2.217,1.02 v 0 c -0.056,0.037 -0.109,0.078 -0.164,0.115 v 0 c -5.181,1.952 -9.415,5.831 -11.827,10.768 v 0 l 0.063,-4.092 z" style="fill:url(#linearGradient3498);stroke:none" id="path3500"/></g></g></g></g><g id="g3502"><g id="g3504" clip-path="url(#clipPath3508)"><g id="g3510"><g id="g3512"><path d="m 1279.541,1700.512 -0.129,-8.085 7.412,-0.116 -0.283,-17.802 c -0.018,-1.172 -0.272,-2.265 -0.712,-3.262 v 0 c -0.635,-1.433 -1.67,-2.661 -2.954,-3.542 v 0 c 5.182,1.952 9.416,5.831 11.828,10.768 v 0 l 0.015,22.038 h -1.845 v 10e-4 h -13.329 z" style="fill:url(#linearGradient3518);stroke:none" id="path3520"/></g></g></g></g><g id="g3522"><g id="g3524" clip-path="url(#clipPath3528)"><g id="g3530"><g id="g3532"><path d="m 1279.54,1700.511 -0.128,-8.085 7.412,-0.115 -0.284,-17.798 c -0.013,-1.178 -0.27,-2.272 -0.71,-3.265 v 0 c -0.639,-1.435 -1.668,-2.662 -2.953,-3.543 v 0 c 5.182,1.952 9.414,5.829 11.828,10.77 v 0 l 0.013,22.036 z" style="fill:url(#linearGradient3538);stroke:none" id="path3540"/></g></g></g></g><g id="g3542"><g id="g3544" clip-path="url(#clipPath3548)"><g id="g3550"><g id="g3552"><path d="m 1282.875,1667.705 c -0.056,-0.037 -0.108,-0.078 -0.164,-0.115 v 0 c -0.679,-0.443 -1.427,-0.79 -2.217,-1.02 v 0 c -0.409,-0.119 -3.056,-0.21 -5.653,-0.267 v 0 c -0.323,-0.852 -0.717,-1.665 -1.173,-2.442 v 0 c -0.754,-1.281 -2.264,-3.459 -4.892,-5.256 v 0 c -0.163,-0.112 -0.323,-0.218 -0.481,-0.316 v 0 h 1.123 c 0.337,-0.01 0.671,0 1.005,0 v 0 c 1.236,0.037 10.605,-0.01 11.935,-0.01 v 0 c 0.65,0 7.488,4.312 9.311,6.914 v 0 c 0.908,1.303 1.638,2.742 2.147,4.288 v 0 c 0.507,1.546 0.794,3.194 0.822,4.893 v 0 l 0.065,4.092 c -2.412,-4.937 -6.646,-8.816 -11.828,-10.768" style="fill:url(#linearGradient3558);stroke:none" id="path3560"/></g></g></g></g></g></svg>