<svg xmlns="http://www.w3.org/2000/svg" width="533" height="387" fill="none" viewBox="0 0 533 387"><g id="undraw_programming_hero" clip-path="url(#clip0_203_226)"><path id="Vector" fill="#F2F2F2" d="M310.472 68.2236C320.461 68.2236 328.559 60.1393 328.559 50.1667C328.559 40.1942 320.461 32.1098 310.472 32.1098C300.482 32.1098 292.384 40.1942 292.384 50.1667C292.384 60.1393 300.482 68.2236 310.472 68.2236Z"/><path id="Vector_2" fill="#F2F2F2" d="M450.781 336.208C477.666 315.765 490.507 281.413 482.468 248.643C482.268 247.829 482.057 247.017 481.835 246.206C476.506 226.754 463.321 208.267 444.104 202.052C427.968 196.833 410.355 200.846 393.522 198.771C360.477 194.697 334.858 168.005 316.831 140.058C298.805 112.111 284.951 80.8279 260.998 57.7395C221.515 19.6822 157.109 11.4885 108.156 36.2609C59.2034 61.0334 28.021 115.993 29.3508 170.768C30.6807 225.542 63.2527 277.91 110.555 305.695C127.932 315.902 148.031 323.132 168.032 320.602C185.388 318.407 201.157 309.097 218.431 306.333C245.589 301.988 272.574 314.246 296.064 328.531C319.554 342.816 342.243 359.747 368.936 366.37C394.855 372.8 426.965 354.317 450.781 336.208Z"/><path id="Vector_3" fill="#484662" d="M412.154 37.4112C411.565 37.0189 410.969 36.647 410.379 36.2683C393.343 25.391 375.083 16.5544 355.976 9.94112L351.546 70.9541H323.461V1.03466C321.693 0.669475 319.911 0.324578 318.129 -3.05176e-05V70.9541H284.753C266.38 70.9541 248.758 63.6674 235.766 50.697C222.774 37.7266 215.475 20.135 215.475 1.79216C213.686 2.17763 211.912 2.5901 210.137 3.02967V70.9541H182.952L178.732 12.7747C159.097 20.2923 140.456 30.1783 123.225 42.2127C122.927 42.4156 122.629 42.6252 122.338 42.8281C120.84 43.8763 119.364 44.9448 117.894 46.0268V278.792H198.011L196.595 259.214L188.805 151.721H345.687L337.896 259.214L336.481 278.792H415.71V39.7646C414.532 38.9666 413.346 38.1821 412.154 37.4112ZM210.137 133.969H187.518L183.338 76.2831H210.137V133.969ZM318.13 133.969H280.14V132.826C280.14 132.276 280.032 131.732 279.821 131.225C279.61 130.717 279.301 130.256 278.912 129.868C278.522 129.48 278.06 129.172 277.551 128.963C277.043 128.753 276.497 128.646 275.947 128.647H259.432C258.882 128.646 258.338 128.754 257.83 128.964C257.322 129.174 256.86 129.482 256.471 129.87C256.082 130.258 255.774 130.719 255.564 131.226C255.353 131.733 255.245 132.277 255.245 132.826V133.969H215.475V76.2831H318.13V133.969ZM323.461 133.969V76.2831H351.16L346.98 133.969H323.461Z"/><path id="Vector_4" fill="#484662" d="M-2.28882e-05 293.697C5.88481 300.658 12.2499 307.2 19.0488 313.275L513.951 313.952C520.75 307.877 527.115 301.335 533 294.374L-2.28882e-05 293.697Z"/><path id="Vector_5" fill="#484662" d="M335.609 231.008V288.966C335.61 289.705 335.904 290.413 336.427 290.936C336.95 291.458 337.66 291.751 338.4 291.752H424.434C425.174 291.751 425.883 291.458 426.406 290.936C426.929 290.413 427.224 289.705 427.224 288.966V231.008C427.222 230.27 426.928 229.562 426.405 229.041C425.882 228.519 425.173 228.226 424.434 228.225H338.4C337.66 228.226 336.952 228.519 336.429 229.041C335.906 229.562 335.611 230.27 335.609 231.008Z"/><path id="Vector_6" fill="#2F3DBB" d="M337.628 231.729V288.251C337.628 288.646 337.786 289.024 338.065 289.303C338.345 289.582 338.724 289.74 339.119 289.74H423.718C424.113 289.74 424.492 289.582 424.771 289.303C425.051 289.024 425.208 288.646 425.209 288.251V231.729C425.209 231.334 425.052 230.955 424.772 230.675C424.493 230.395 424.113 230.238 423.718 230.237H339.119C338.723 230.238 338.344 230.395 338.064 230.675C337.785 230.955 337.628 231.334 337.628 231.729Z"/><path id="Vector_7" fill="#3D3B53" d="M333.81 300.27C333.968 300.467 334.168 300.626 334.396 300.735C334.624 300.844 334.874 300.9 335.127 300.899H427.249C427.501 300.898 427.75 300.842 427.977 300.734C428.204 300.625 428.405 300.468 428.563 300.273C428.722 300.077 428.835 299.849 428.894 299.605C428.954 299.36 428.958 299.106 428.906 298.859L427.476 292.078C427.417 291.802 427.289 291.544 427.105 291.33C426.92 291.115 426.685 290.95 426.42 290.849C426.229 290.774 426.025 290.735 425.819 290.736H336.551C336.345 290.735 336.141 290.774 335.949 290.849C335.685 290.95 335.449 291.115 335.265 291.33C335.081 291.544 334.953 291.802 334.894 292.078L333.464 298.859C333.413 299.105 333.418 299.36 333.478 299.604C333.537 299.848 333.651 300.075 333.81 300.27Z"/><path id="Vector_8" fill="#484662" d="M422.658 293.656H424.834C425.017 293.656 425.165 293.509 425.165 293.326V292.287C425.165 292.105 425.017 291.957 424.834 291.957H422.658C422.475 291.957 422.327 292.105 422.327 292.287V293.326C422.327 293.509 422.475 293.656 422.658 293.656Z"/><path id="Vector_9" fill="#484662" d="M416.983 293.656H419.159C419.342 293.656 419.49 293.509 419.49 293.326V292.287C419.49 292.105 419.342 291.957 419.159 291.957H416.983C416.801 291.957 416.653 292.105 416.653 292.287V293.326C416.653 293.509 416.801 293.656 416.983 293.656Z"/><path id="Vector_10" fill="#484662" d="M411.309 293.656H413.485C413.667 293.656 413.815 293.509 413.815 293.326V292.287C413.815 292.105 413.667 291.957 413.485 291.957H411.309C411.126 291.957 410.978 292.105 410.978 292.287V293.326C410.978 293.509 411.126 293.656 411.309 293.656Z"/><path id="Vector_11" fill="#484662" d="M405.634 293.656H407.81C407.993 293.656 408.141 293.509 408.141 293.326V292.287C408.141 292.105 407.993 291.957 407.81 291.957H405.634C405.451 291.957 405.303 292.105 405.303 292.287V293.326C405.303 293.509 405.451 293.656 405.634 293.656Z"/><path id="Vector_12" fill="#484662" d="M399.959 293.656H402.135C402.318 293.656 402.466 293.509 402.466 293.326V292.287C402.466 292.105 402.318 291.957 402.135 291.957H399.959C399.777 291.957 399.629 292.105 399.629 292.287V293.326C399.629 293.509 399.777 293.656 399.959 293.656Z"/><path id="Vector_13" fill="#484662" d="M394.285 293.656H396.461C396.643 293.656 396.791 293.509 396.791 293.326V292.287C396.791 292.105 396.643 291.957 396.461 291.957H394.285C394.102 291.957 393.954 292.105 393.954 292.287V293.326C393.954 293.509 394.102 293.656 394.285 293.656Z"/><path id="Vector_14" fill="#484662" d="M388.61 293.656H390.786C390.969 293.656 391.117 293.509 391.117 293.326V292.287C391.117 292.105 390.969 291.957 390.786 291.957H388.61C388.427 291.957 388.279 292.105 388.279 292.287V293.326C388.279 293.509 388.427 293.656 388.61 293.656Z"/><path id="Vector_15" fill="#484662" d="M382.935 293.656H385.111C385.294 293.656 385.442 293.509 385.442 293.326V292.287C385.442 292.105 385.294 291.957 385.111 291.957H382.935C382.753 291.957 382.605 292.105 382.605 292.287V293.326C382.605 293.509 382.753 293.656 382.935 293.656Z"/><path id="Vector_16" fill="#484662" d="M377.261 293.656H379.437C379.619 293.656 379.767 293.509 379.767 293.326V292.287C379.767 292.105 379.619 291.957 379.437 291.957H377.261C377.078 291.957 376.93 292.105 376.93 292.287V293.326C376.93 293.509 377.078 293.656 377.261 293.656Z"/><path id="Vector_17" fill="#484662" d="M371.586 293.656H373.762C373.945 293.656 374.093 293.509 374.093 293.326V292.287C374.093 292.105 373.945 291.957 373.762 291.957H371.586C371.403 291.957 371.255 292.105 371.255 292.287V293.326C371.255 293.509 371.403 293.656 371.586 293.656Z"/><path id="Vector_18" fill="#484662" d="M365.911 293.656H368.087C368.27 293.656 368.418 293.509 368.418 293.326V292.287C368.418 292.105 368.27 291.957 368.087 291.957H365.911C365.729 291.957 365.581 292.105 365.581 292.287V293.326C365.581 293.509 365.729 293.656 365.911 293.656Z"/><path id="Vector_19" fill="#484662" d="M360.237 293.656H362.413C362.595 293.656 362.743 293.509 362.743 293.326V292.287C362.743 292.105 362.595 291.957 362.413 291.957H360.237C360.054 291.957 359.906 292.105 359.906 292.287V293.326C359.906 293.509 360.054 293.656 360.237 293.656Z"/><path id="Vector_20" fill="#484662" d="M354.562 293.656H356.738C356.921 293.656 357.069 293.509 357.069 293.326V292.287C357.069 292.105 356.921 291.957 356.738 291.957H354.562C354.379 291.957 354.231 292.105 354.231 292.287V293.326C354.231 293.509 354.379 293.656 354.562 293.656Z"/><path id="Vector_21" fill="#484662" d="M348.887 293.656H351.063C351.246 293.656 351.394 293.509 351.394 293.326V292.287C351.394 292.105 351.246 291.957 351.063 291.957H348.887C348.705 291.957 348.557 292.105 348.557 292.287V293.326C348.557 293.509 348.705 293.656 348.887 293.656Z"/><path id="Vector_22" fill="#484662" d="M343.213 293.656H345.389C345.571 293.656 345.719 293.509 345.719 293.326V292.287C345.719 292.105 345.571 291.957 345.389 291.957H343.213C343.03 291.957 342.882 292.105 342.882 292.287V293.326C342.882 293.509 343.03 293.656 343.213 293.656Z"/><path id="Vector_23" fill="#484662" d="M337.538 293.656H339.714C339.897 293.656 340.045 293.509 340.045 293.326V292.287C340.045 292.105 339.897 291.957 339.714 291.957H337.538C337.356 291.957 337.207 292.105 337.207 292.287V293.326C337.207 293.509 337.356 293.656 337.538 293.656Z"/><path id="Vector_24" fill="#484662" d="M422.725 296.489H424.901C425.084 296.489 425.232 296.341 425.232 296.159V295.12C425.232 294.937 425.084 294.789 424.901 294.789H422.725C422.542 294.789 422.394 294.937 422.394 295.12V296.159C422.394 296.341 422.542 296.489 422.725 296.489Z"/><path id="Vector_25" fill="#484662" d="M417.05 296.489H419.226C419.409 296.489 419.557 296.341 419.557 296.159V295.12C419.557 294.937 419.409 294.789 419.226 294.789H417.05C416.868 294.789 416.72 294.937 416.72 295.12V296.159C416.72 296.341 416.868 296.489 417.05 296.489Z"/><path id="Vector_26" fill="#484662" d="M411.376 296.489H413.552C413.734 296.489 413.882 296.341 413.882 296.159V295.12C413.882 294.937 413.734 294.789 413.552 294.789H411.376C411.193 294.789 411.045 294.937 411.045 295.12V296.159C411.045 296.341 411.193 296.489 411.376 296.489Z"/><path id="Vector_27" fill="#484662" d="M405.701 296.489H407.877C408.06 296.489 408.208 296.341 408.208 296.159V295.12C408.208 294.937 408.06 294.789 407.877 294.789H405.701C405.518 294.789 405.37 294.937 405.37 295.12V296.159C405.37 296.341 405.518 296.489 405.701 296.489Z"/><path id="Vector_28" fill="#484662" d="M400.026 296.489H402.202C402.385 296.489 402.533 296.341 402.533 296.159V295.12C402.533 294.937 402.385 294.789 402.202 294.789H400.026C399.844 294.789 399.696 294.937 399.696 295.12V296.159C399.696 296.341 399.844 296.489 400.026 296.489Z"/><path id="Vector_29" fill="#484662" d="M394.352 296.489H396.528C396.71 296.489 396.858 296.341 396.858 296.159V295.12C396.858 294.937 396.71 294.789 396.528 294.789H394.352C394.169 294.789 394.021 294.937 394.021 295.12V296.159C394.021 296.341 394.169 296.489 394.352 296.489Z"/><path id="Vector_30" fill="#484662" d="M388.677 296.489H390.853C391.036 296.489 391.184 296.341 391.184 296.159V295.12C391.184 294.937 391.036 294.789 390.853 294.789H388.677C388.494 294.789 388.346 294.937 388.346 295.12V296.159C388.346 296.341 388.494 296.489 388.677 296.489Z"/><path id="Vector_31" fill="#484662" d="M383.002 296.489H385.178C385.361 296.489 385.509 296.341 385.509 296.159V295.12C385.509 294.937 385.361 294.789 385.178 294.789H383.002C382.82 294.789 382.672 294.937 382.672 295.12V296.159C382.672 296.341 382.82 296.489 383.002 296.489Z"/><path id="Vector_32" fill="#484662" d="M377.328 296.489H379.504C379.686 296.489 379.834 296.341 379.834 296.159V295.12C379.834 294.937 379.686 294.789 379.504 294.789H377.328C377.145 294.789 376.997 294.937 376.997 295.12V296.159C376.997 296.341 377.145 296.489 377.328 296.489Z"/><path id="Vector_33" fill="#484662" d="M371.653 296.489H373.829C374.012 296.489 374.16 296.341 374.16 296.159V295.12C374.16 294.937 374.012 294.789 373.829 294.789H371.653C371.471 294.789 371.322 294.937 371.322 295.12V296.159C371.322 296.341 371.471 296.489 371.653 296.489Z"/><path id="Vector_34" fill="#484662" d="M365.978 296.489H368.154C368.337 296.489 368.485 296.341 368.485 296.159V295.12C368.485 294.937 368.337 294.789 368.154 294.789H365.978C365.796 294.789 365.648 294.937 365.648 295.12V296.159C365.648 296.341 365.796 296.489 365.978 296.489Z"/><path id="Vector_35" fill="#484662" d="M360.304 296.489H362.48C362.662 296.489 362.811 296.341 362.811 296.159V295.12C362.811 294.937 362.662 294.789 362.48 294.789H360.304C360.121 294.789 359.973 294.937 359.973 295.12V296.159C359.973 296.341 360.121 296.489 360.304 296.489Z"/><path id="Vector_36" fill="#484662" d="M354.629 296.489H356.805C356.988 296.489 357.136 296.341 357.136 296.159V295.12C357.136 294.937 356.988 294.789 356.805 294.789H354.629C354.447 294.789 354.298 294.937 354.298 295.12V296.159C354.298 296.341 354.447 296.489 354.629 296.489Z"/><path id="Vector_37" fill="#484662" d="M348.955 296.489H351.13C351.313 296.489 351.461 296.341 351.461 296.159V295.12C351.461 294.937 351.313 294.789 351.13 294.789H348.955C348.772 294.789 348.624 294.937 348.624 295.12V296.159C348.624 296.341 348.772 296.489 348.955 296.489Z"/><path id="Vector_38" fill="#484662" d="M343.28 296.489H345.456C345.638 296.489 345.786 296.341 345.786 296.159V295.12C345.786 294.937 345.638 294.789 345.456 294.789H343.28C343.097 294.789 342.949 294.937 342.949 295.12V296.159C342.949 296.341 343.097 296.489 343.28 296.489Z"/><path id="Vector_39" fill="#484662" d="M337.605 296.489H339.781C339.964 296.489 340.112 296.341 340.112 296.159V295.12C340.112 294.937 339.964 294.789 339.781 294.789H337.605C337.423 294.789 337.275 294.937 337.275 295.12V296.159C337.275 296.341 337.423 296.489 337.605 296.489Z"/><path id="Vector_40" fill="#484662" d="M375.625 299.888H397.663C397.845 299.888 397.993 299.74 397.993 299.558V298.519C397.993 298.336 397.845 298.188 397.663 298.188H375.625C375.443 298.188 375.295 298.336 375.295 298.519V299.558C375.295 299.74 375.443 299.888 375.625 299.888Z"/><path id="Vector_41" fill="#fff" d="M352.278 242.603H350.351C349.767 242.603 349.294 243.075 349.294 243.658C349.294 244.241 349.767 244.714 350.351 244.714H352.278C352.862 244.714 353.335 244.241 353.335 243.658C353.335 243.075 352.862 242.603 352.278 242.603Z"/><path id="Vector_42" fill="#fff" d="M374.309 242.603H372.383C371.799 242.603 371.325 243.075 371.325 243.658C371.325 244.241 371.799 244.714 372.383 244.714H374.309C374.893 244.714 375.367 244.241 375.367 243.658C375.367 243.075 374.893 242.603 374.309 242.603Z"/><path id="Vector_43" fill="#fff" d="M380.551 242.603H378.625C378.041 242.603 377.568 243.075 377.568 243.658C377.568 244.241 378.041 244.714 378.625 244.714H380.551C381.135 244.714 381.609 244.241 381.609 243.658C381.609 243.075 381.135 242.603 380.551 242.603Z"/><path id="Vector_44" fill="#fff" d="M368.316 242.427H356.344C355.76 242.427 355.286 242.899 355.286 243.482C355.286 244.065 355.76 244.538 356.344 244.538H368.316C368.9 244.538 369.374 244.065 369.374 243.482C369.374 242.899 368.9 242.427 368.316 242.427Z"/><path id="Vector_45" fill="#fff" d="M397.692 242.427H385.719C385.135 242.427 384.662 242.899 384.662 243.482C384.662 244.065 385.135 244.538 385.719 244.538H397.692C398.276 244.538 398.749 244.065 398.749 243.482C398.749 242.899 398.276 242.427 397.692 242.427Z"/><path id="Vector_46" fill="#fff" d="M358.153 247.368H356.226C355.642 247.368 355.169 247.841 355.169 248.424C355.169 249.007 355.642 249.479 356.226 249.479H358.153C358.737 249.479 359.21 249.007 359.21 248.424C359.21 247.841 358.737 247.368 358.153 247.368Z"/><path id="Vector_47" fill="#fff" d="M380.184 247.368H378.258C377.674 247.368 377.2 247.841 377.2 248.424C377.2 249.007 377.674 249.479 378.258 249.479H380.184C380.768 249.479 381.242 249.007 381.242 248.424C381.242 247.841 380.768 247.368 380.184 247.368Z"/><path id="Vector_48" fill="#fff" d="M386.426 247.368H384.5C383.916 247.368 383.443 247.841 383.443 248.424C383.443 249.007 383.916 249.479 384.5 249.479H386.426C387.01 249.479 387.484 249.007 387.484 248.424C387.484 247.841 387.01 247.368 386.426 247.368Z"/><path id="Vector_49" fill="#fff" d="M374.191 247.192H362.219C361.635 247.192 361.161 247.665 361.161 248.248C361.161 248.831 361.635 249.303 362.219 249.303H374.191C374.776 249.303 375.249 248.831 375.249 248.248C375.249 247.665 374.776 247.192 374.191 247.192Z"/><path id="Vector_50" fill="#fff" d="M403.567 247.192H391.594C391.01 247.192 390.537 247.665 390.537 248.248C390.537 248.831 391.01 249.303 391.594 249.303H403.567C404.151 249.303 404.624 248.831 404.624 248.248C404.624 247.665 404.151 247.192 403.567 247.192Z"/><path id="Vector_51" fill="#fff" d="M364.028 252.134H362.101C361.517 252.134 361.044 252.606 361.044 253.189C361.044 253.772 361.517 254.245 362.101 254.245H364.028C364.612 254.245 365.085 253.772 365.085 253.189C365.085 252.606 364.612 252.134 364.028 252.134Z"/><path id="Vector_52" fill="#fff" d="M386.059 252.134H384.133C383.549 252.134 383.075 252.606 383.075 253.189C383.075 253.772 383.549 254.245 384.133 254.245H386.059C386.643 254.245 387.117 253.772 387.117 253.189C387.117 252.606 386.643 252.134 386.059 252.134Z"/><path id="Vector_53" fill="#fff" d="M392.301 252.134H390.375C389.791 252.134 389.318 252.606 389.318 253.189C389.318 253.772 389.791 254.245 390.375 254.245H392.301C392.885 254.245 393.359 253.772 393.359 253.189C393.359 252.606 392.885 252.134 392.301 252.134Z"/><path id="Vector_54" fill="#fff" d="M380.067 251.957H368.094C367.51 251.957 367.037 252.43 367.037 253.013C367.037 253.596 367.51 254.069 368.094 254.069H380.067C380.651 254.069 381.124 253.596 381.124 253.013C381.124 252.43 380.651 251.957 380.067 251.957Z"/><path id="Vector_55" fill="#fff" d="M409.442 251.957H397.469C396.885 251.957 396.412 252.43 396.412 253.013C396.412 253.596 396.885 254.069 397.469 254.069H409.442C410.026 254.069 410.499 253.596 410.499 253.013C410.499 252.43 410.026 251.957 409.442 251.957Z"/><path id="Vector_56" fill="#fff" d="M369.903 256.899H367.976C367.392 256.899 366.919 257.372 366.919 257.955C366.919 258.538 367.392 259.01 367.976 259.01H369.903C370.487 259.01 370.96 258.538 370.96 257.955C370.96 257.372 370.487 256.899 369.903 256.899Z"/><path id="Vector_57" fill="#fff" d="M391.934 256.899H390.008C389.424 256.899 388.95 257.372 388.95 257.955C388.95 258.538 389.424 259.01 390.008 259.01H391.934C392.518 259.01 392.992 258.538 392.992 257.955C392.992 257.372 392.518 256.899 391.934 256.899Z"/><path id="Vector_58" fill="#fff" d="M398.176 256.899H396.25C395.666 256.899 395.193 257.372 395.193 257.955C395.193 258.538 395.666 259.01 396.25 259.01H398.176C398.761 259.01 399.234 258.538 399.234 257.955C399.234 257.372 398.761 256.899 398.176 256.899Z"/><path id="Vector_59" fill="#fff" d="M385.942 256.723H373.969C373.385 256.723 372.912 257.196 372.912 257.779C372.912 258.362 373.385 258.834 373.969 258.834H385.942C386.526 258.834 386.999 258.362 386.999 257.779C386.999 257.196 386.526 256.723 385.942 256.723Z"/><path id="Vector_60" fill="#fff" d="M374.309 275.848H372.383C371.799 275.848 371.325 276.321 371.325 276.904C371.325 277.487 371.799 277.96 372.383 277.96H374.309C374.893 277.96 375.367 277.487 375.367 276.904C375.367 276.321 374.893 275.848 374.309 275.848Z"/><path id="Vector_61" fill="#fff" d="M380.551 275.848H378.625C378.041 275.848 377.568 276.321 377.568 276.904C377.568 277.487 378.041 277.96 378.625 277.96H380.551C381.135 277.96 381.609 277.487 381.609 276.904C381.609 276.321 381.135 275.848 380.551 275.848Z"/><path id="Vector_62" fill="#fff" d="M397.692 276.024H385.719C385.135 276.024 384.662 276.497 384.662 277.08C384.662 277.663 385.135 278.136 385.719 278.136H397.692C398.276 278.136 398.749 277.663 398.749 277.08C398.749 276.497 398.276 276.024 397.692 276.024Z"/><path id="Vector_63" fill="#fff" d="M352.278 275.848H350.351C349.767 275.848 349.294 276.321 349.294 276.904C349.294 277.487 349.767 277.96 350.351 277.96H352.278C352.862 277.96 353.335 277.487 353.335 276.904C353.335 276.321 352.862 275.848 352.278 275.848Z"/><path id="Vector_64" fill="#fff" d="M368.316 276.024H356.344C355.76 276.024 355.286 276.497 355.286 277.08C355.286 277.663 355.76 278.136 356.344 278.136H368.316C368.9 278.136 369.374 277.663 369.374 277.08C369.374 276.497 368.9 276.024 368.316 276.024Z"/><path id="Vector_65" fill="#fff" d="M358.153 271.083H356.226C355.642 271.083 355.169 271.556 355.169 272.139C355.169 272.722 355.642 273.194 356.226 273.194H358.153C358.737 273.194 359.21 272.722 359.21 272.139C359.21 271.556 358.737 271.083 358.153 271.083Z"/><path id="Vector_66" fill="#fff" d="M380.184 271.083H378.258C377.674 271.083 377.2 271.556 377.2 272.139C377.2 272.722 377.674 273.194 378.258 273.194H380.184C380.768 273.194 381.242 272.722 381.242 272.139C381.242 271.556 380.768 271.083 380.184 271.083Z"/><path id="Vector_67" fill="#fff" d="M386.426 271.083H384.5C383.916 271.083 383.443 271.556 383.443 272.139C383.443 272.722 383.916 273.194 384.5 273.194H386.426C387.01 273.194 387.484 272.722 387.484 272.139C387.484 271.556 387.01 271.083 386.426 271.083Z"/><path id="Vector_68" fill="#fff" d="M374.191 271.259H362.219C361.635 271.259 361.161 271.732 361.161 272.315C361.161 272.898 361.635 273.37 362.219 273.37H374.191C374.776 273.37 375.249 272.898 375.249 272.315C375.249 271.732 374.776 271.259 374.191 271.259Z"/><path id="Vector_69" fill="#fff" d="M364.028 266.317H362.101C361.517 266.317 361.044 266.79 361.044 267.373C361.044 267.956 361.517 268.429 362.101 268.429H364.028C364.612 268.429 365.085 267.956 365.085 267.373C365.085 266.79 364.612 266.317 364.028 266.317Z"/><path id="Vector_70" fill="#fff" d="M386.059 266.317H384.133C383.549 266.317 383.075 266.79 383.075 267.373C383.075 267.956 383.549 268.429 384.133 268.429H386.059C386.643 268.429 387.117 267.956 387.117 267.373C387.117 266.79 386.643 266.317 386.059 266.317Z"/><path id="Vector_71" fill="#fff" d="M392.301 266.317H390.375C389.791 266.317 389.318 266.79 389.318 267.373C389.318 267.956 389.791 268.429 390.375 268.429H392.301C392.885 268.429 393.359 267.956 393.359 267.373C393.359 266.79 392.885 266.317 392.301 266.317Z"/><path id="Vector_72" fill="#fff" d="M380.067 266.493H368.094C367.51 266.493 367.037 266.966 367.037 267.549C367.037 268.132 367.51 268.605 368.094 268.605H380.067C380.651 268.605 381.124 268.132 381.124 267.549C381.124 266.966 380.651 266.493 380.067 266.493Z"/><path id="Vector_73" fill="#fff" d="M369.903 261.552H367.976C367.392 261.552 366.919 262.025 366.919 262.608C366.919 263.191 367.392 263.663 367.976 263.663H369.903C370.487 263.663 370.96 263.191 370.96 262.608C370.96 262.025 370.487 261.552 369.903 261.552Z"/><path id="Vector_74" fill="#fff" d="M391.934 261.552H390.008C389.424 261.552 388.95 262.025 388.95 262.608C388.95 263.191 389.424 263.663 390.008 263.663H391.934C392.518 263.663 392.992 263.191 392.992 262.608C392.992 262.025 392.518 261.552 391.934 261.552Z"/><path id="Vector_75" fill="#fff" d="M398.176 261.552H396.25C395.666 261.552 395.193 262.025 395.193 262.608C395.193 263.191 395.666 263.663 396.25 263.663H398.176C398.761 263.663 399.234 263.191 399.234 262.608C399.234 262.025 398.761 261.552 398.176 261.552Z"/><path id="Vector_76" fill="#fff" d="M385.942 261.728H373.969C373.385 261.728 372.912 262.201 372.912 262.784C372.912 263.367 373.385 263.839 373.969 263.839H385.942C386.526 263.839 386.999 263.367 386.999 262.784C386.999 262.201 386.526 261.728 385.942 261.728Z"/><g id="hand"><path id="Hand" fill="#FFB6B6" d="M342.036 331.697L332.993 317.427L361.378 294.838L373.094 281.88C374.616 280.196 376.554 278.941 378.714 278.239C380.875 277.538 383.182 277.415 385.405 277.882C387.627 278.35 389.689 279.391 391.382 280.903C393.075 282.415 394.342 284.344 395.054 286.497C396.11 289.688 395.883 293.164 394.421 296.191C392.959 299.218 390.375 301.56 387.217 302.721L368.69 309.535L342.036 331.697Z"/></g><path id="Vector_77" fill="#3D3B53" d="M129.853 228.228V297.586H178.525V228.228C178.526 227.729 178.366 227.243 178.07 226.841C177.774 226.44 177.356 226.143 176.879 225.996C176.654 225.922 176.418 225.885 176.181 225.888H132.203C131.895 225.887 131.59 225.947 131.305 226.065C131.02 226.182 130.761 226.354 130.542 226.571C130.324 226.789 130.151 227.047 130.032 227.331C129.914 227.615 129.853 227.92 129.853 228.228ZM148.847 252.059C148.86 250.692 149.413 249.385 150.386 248.423C151.359 247.46 152.673 246.92 154.043 246.92C155.413 246.92 156.727 247.46 157.7 248.423C158.673 249.385 159.226 250.692 159.239 252.059V260.107C159.232 261.478 158.681 262.791 157.708 263.758C156.734 264.725 155.417 265.268 154.043 265.268C152.67 265.268 151.352 264.725 150.378 263.758C149.405 262.791 148.854 261.478 148.847 260.107V252.059Z"/><path id="Vector_78" fill="#484662" d="M129.704 295.368V302.056C129.705 302.402 129.843 302.735 130.088 302.98C130.332 303.226 130.664 303.365 131.011 303.368H177.366C177.714 303.366 178.046 303.227 178.291 302.981C178.536 302.736 178.674 302.403 178.674 302.056V295.368H129.704Z"/><path id="Vector_79" fill="#484662" d="M53.2851 123.731V250.369C53.2864 251.983 53.9291 253.53 55.0722 254.671C56.2152 255.812 57.7652 256.454 59.3818 256.455H247.363C248.98 256.454 250.53 255.812 251.673 254.671C252.816 253.53 253.459 251.983 253.46 250.369V123.731C253.456 122.118 252.812 120.573 251.669 119.434C250.527 118.294 248.978 117.653 247.363 117.651H59.3818C57.7666 117.653 56.2181 118.294 55.0754 119.434C53.9327 120.573 53.2889 122.118 53.2851 123.731Z"/><path id="Vector_80" fill="#fff" d="M57.695 125.306V248.807C57.6965 249.669 58.0403 250.495 58.651 251.105C59.2618 251.715 60.0897 252.058 60.9534 252.059H245.798C246.662 252.058 247.49 251.715 248.101 251.105C248.711 250.495 249.055 249.669 249.057 248.807V125.306C249.057 124.443 248.714 123.615 248.103 123.004C247.492 122.393 246.663 122.049 245.798 122.047H60.9534C60.0886 122.049 59.2599 122.393 58.6491 123.004C58.0382 123.615 57.6951 124.443 57.695 125.306Z"/><path id="Vector_81" fill="#3D3B53" d="M91.9991 302.915C92.1872 303.15 92.4264 303.34 92.6986 303.47C92.9708 303.6 93.2689 303.667 93.5707 303.665H203.541C203.842 303.665 204.139 303.598 204.411 303.469C204.682 303.339 204.921 303.151 205.111 302.918C205.3 302.685 205.435 302.412 205.506 302.121C205.577 301.829 205.581 301.525 205.52 301.231L203.812 293.136C203.742 292.806 203.589 292.499 203.369 292.242C203.149 291.986 202.868 291.789 202.552 291.668C202.324 291.579 202.08 291.533 201.834 291.533H95.271C95.0253 291.533 94.7817 291.579 94.5529 291.668C94.237 291.789 93.9562 291.986 93.7361 292.242C93.516 292.499 93.3637 292.806 93.2929 293.136L91.5859 301.231C91.5251 301.525 91.5307 301.828 91.6022 302.119C91.6737 302.411 91.8092 302.682 91.9991 302.915Z"/><path id="Vector_82" fill="#484662" d="M239.8 139.059H66.8408C66.6611 139.055 66.49 138.981 66.3643 138.853C66.2385 138.725 66.1681 138.552 66.1681 138.373C66.1681 138.193 66.2385 138.021 66.3643 137.893C66.49 137.764 66.6611 137.69 66.8408 137.686H239.8C239.979 137.69 240.15 137.764 240.276 137.893C240.402 138.021 240.472 138.193 240.472 138.373C240.472 138.552 240.402 138.725 240.276 138.853C240.15 138.981 239.979 139.055 239.8 139.059Z"/><path id="Vector_83" fill="#484662" d="M78.6144 134.18C80.8406 134.18 82.6452 132.338 82.6452 130.067C82.6452 127.795 80.8406 125.953 78.6144 125.953C76.3882 125.953 74.5835 127.795 74.5835 130.067C74.5835 132.338 76.3882 134.18 78.6144 134.18Z"/><path id="Vector_84" fill="#484662" d="M92.5392 134.18C94.7654 134.18 96.5701 132.338 96.5701 130.067C96.5701 127.795 94.7654 125.953 92.5392 125.953C90.313 125.953 88.5083 127.795 88.5083 130.067C88.5083 132.338 90.313 134.18 92.5392 134.18Z"/><path id="Vector_85" fill="#484662" d="M106.464 134.18C108.69 134.18 110.495 132.338 110.495 130.067C110.495 127.795 108.69 125.953 106.464 125.953C104.238 125.953 102.433 127.795 102.433 130.067C102.433 132.338 104.238 134.18 106.464 134.18Z"/><path id="Vector_86" fill="#484662" d="M231.414 126.97H221.524C221.329 126.975 221.143 127.055 221.006 127.195C220.869 127.335 220.793 127.522 220.793 127.717C220.793 127.913 220.869 128.1 221.006 128.24C221.143 128.379 221.329 128.46 221.524 128.465H231.414C231.611 128.462 231.799 128.382 231.937 128.242C232.075 128.102 232.153 127.914 232.153 127.717C232.153 127.521 232.075 127.332 231.937 127.193C231.799 127.053 231.611 126.973 231.414 126.97Z"/><path id="Vector_87" fill="#484662" d="M231.414 129.777H221.524C221.329 129.781 221.142 129.862 221.006 130.001C220.869 130.141 220.792 130.328 220.792 130.524C220.792 130.719 220.869 130.907 221.006 131.046C221.142 131.186 221.329 131.267 221.524 131.271H231.414C231.611 131.269 231.8 131.189 231.938 131.049C232.076 130.909 232.154 130.72 232.154 130.524C232.154 130.327 232.076 130.138 231.938 129.999C231.8 129.859 231.611 129.779 231.414 129.777Z"/><path id="Vector_88" fill="#484662" d="M231.414 132.583H221.524C221.329 132.588 221.143 132.668 221.006 132.808C220.869 132.948 220.793 133.135 220.793 133.33C220.793 133.526 220.869 133.713 221.006 133.853C221.143 133.992 221.329 134.073 221.524 134.078H231.414C231.611 134.075 231.799 133.995 231.937 133.855C232.075 133.715 232.153 133.527 232.153 133.33C232.153 133.134 232.075 132.945 231.937 132.806C231.799 132.666 231.611 132.586 231.414 132.583Z"/><path id="Vector_89" fill="#3D3B53" d="M469.849 298.303C470.147 299.17 470.714 299.921 471.466 300.447C472.219 300.974 473.119 301.248 474.037 301.232L491.983 300.771C492.909 300.753 493.803 300.436 494.534 299.869C495.264 299.301 495.791 298.513 496.035 297.621L498.574 270.512C499.475 270.919 500.456 271.12 501.445 271.101C502.304 271.079 503.151 270.889 503.936 270.541C504.722 270.193 505.431 269.693 506.023 269.072C506.616 268.45 507.08 267.718 507.388 266.917C507.697 266.116 507.845 265.263 507.824 264.405C507.802 263.547 507.611 262.702 507.263 261.918C506.914 261.134 506.414 260.426 505.791 259.835C505.168 259.243 504.435 258.78 503.633 258.472C502.831 258.164 501.976 258.016 501.117 258.037C500.721 258.036 500.327 258.077 499.941 258.16C499.52 257.705 499.009 257.344 498.441 257.099C497.872 256.854 497.258 256.731 496.639 256.737L469.034 257.449C468.805 257.457 468.577 257.486 468.353 257.533C467.748 257.646 467.174 257.887 466.669 258.24C466.165 258.592 465.742 259.049 465.429 259.578C465.117 260.108 464.921 260.698 464.856 261.31C464.791 261.921 464.858 262.539 465.052 263.122L469.849 298.303ZM499.095 268.671L500.902 262.211C501.108 261.465 501.113 260.677 500.916 259.929C501.004 259.928 501.081 259.887 501.169 259.887C502.408 259.861 503.606 260.327 504.502 261.183C505.397 262.038 505.916 263.213 505.945 264.45C505.974 265.687 505.511 266.884 504.657 267.781C503.802 268.677 502.627 269.198 501.388 269.231C500.587 269.256 499.794 269.062 499.095 268.671Z"/><path id="Vector_90" fill="#484662" d="M468.353 257.533C468.941 260.89 475.553 263.25 483.504 262.84C490.815 262.504 496.793 259.941 497.888 256.904C497.483 256.784 497.061 256.728 496.639 256.737L469.034 257.449C468.805 257.457 468.577 257.486 468.353 257.533Z"/><path id="Vector_91" fill="#C150AC" d="M484.961 283.406C484.997 283.397 485.032 283.382 485.063 283.361L488.961 280.814C489.008 280.784 489.046 280.742 489.073 280.693C489.1 280.643 489.114 280.588 489.114 280.532C489.114 280.476 489.1 280.42 489.073 280.371C489.047 280.322 489.008 280.28 488.961 280.249L484.91 277.6C484.873 277.576 484.831 277.559 484.787 277.55C484.744 277.542 484.699 277.542 484.655 277.551C484.611 277.56 484.57 277.578 484.533 277.603C484.496 277.628 484.464 277.66 484.44 277.697C484.416 277.734 484.399 277.776 484.391 277.819C484.382 277.863 484.383 277.908 484.392 277.952C484.401 277.995 484.419 278.036 484.444 278.073C484.469 278.11 484.501 278.141 484.539 278.166L488.157 280.531L484.693 282.795C484.625 282.839 484.576 282.905 484.553 282.982C484.53 283.059 484.536 283.141 484.568 283.214C484.6 283.287 484.657 283.347 484.729 283.382C484.801 283.417 484.883 283.426 484.961 283.406H484.961Z"/><path id="Vector_92" fill="#C150AC" d="M478.806 283.689C478.871 283.673 478.93 283.637 478.975 283.587C479.02 283.537 479.049 283.474 479.058 283.408C479.067 283.341 479.056 283.273 479.026 283.212C478.997 283.152 478.95 283.102 478.891 283.068L475.299 281.012L478.771 278.437C478.807 278.411 478.837 278.378 478.859 278.34C478.882 278.302 478.897 278.259 478.904 278.216C478.91 278.172 478.908 278.127 478.897 278.084C478.886 278.041 478.867 278 478.841 277.965C478.814 277.929 478.781 277.899 478.743 277.876C478.705 277.854 478.662 277.838 478.618 277.832C478.574 277.826 478.53 277.828 478.486 277.839C478.443 277.849 478.403 277.869 478.367 277.895L474.48 280.778C474.435 280.811 474.398 280.855 474.375 280.906C474.351 280.957 474.34 281.013 474.343 281.069C474.347 281.125 474.364 281.179 474.394 281.227C474.423 281.275 474.464 281.314 474.513 281.342L478.554 283.655C478.63 283.699 478.72 283.711 478.806 283.689Z"/><path id="Vector_93" fill="#C150AC" d="M484.573 285.638C484.606 285.629 484.637 285.616 484.666 285.599C484.704 285.575 484.737 285.545 484.764 285.509C484.79 285.473 484.809 285.433 484.819 285.39C484.83 285.346 484.832 285.302 484.825 285.258C484.818 285.214 484.803 285.172 484.78 285.134L479.255 276.066C479.208 275.99 479.133 275.935 479.046 275.914C478.958 275.893 478.866 275.907 478.79 275.954C478.713 276 478.658 276.076 478.637 276.163C478.615 276.25 478.63 276.342 478.676 276.418L484.201 285.486C484.239 285.548 484.295 285.596 484.362 285.623C484.429 285.65 484.503 285.655 484.573 285.638Z"/><g id="pc-line-1"><path id="pc-line-1_2" fill="#2F3DBB" d="M173.986 176.389H144.05C142.829 176.389 141.839 177.378 141.839 178.597V181.516C141.839 182.736 142.829 183.724 144.05 183.724H173.986C175.207 183.724 176.197 182.736 176.197 181.516V178.597C176.197 177.378 175.207 176.389 173.986 176.389Z"/></g><g id="pc-line-2"><path id="pc-line-2_2" fill="#C150AC" d="M191.435 191.058H126.601C125.38 191.058 124.39 192.047 124.39 193.266V196.186C124.39 197.405 125.38 198.393 126.601 198.393H191.435C192.656 198.393 193.646 197.405 193.646 196.186V193.266C193.646 192.047 192.656 191.058 191.435 191.058Z"/></g><g id="pc-line-3"><path id="pc-line-3_2" fill="#2F3DBB" d="M191.435 205.728H126.601C125.38 205.728 124.39 206.716 124.39 207.935V210.855C124.39 212.074 125.38 213.062 126.601 213.062H191.435C192.656 213.062 193.646 212.074 193.646 210.855V207.935C193.646 206.716 192.656 205.728 191.435 205.728Z"/></g><path id="Vector_94" fill="#484662" d="M196.931 254.849L197.078 255.312L197.085 255.327L201.506 268.743L206.59 284.203L216.157 313.257L216.25 317.77V317.785L216.961 354.09L214.99 359.012L217.208 367.082C217.208 367.082 216.188 354.884 210.717 361.889C207.618 365.87 203.994 369.943 201.019 373.762C205.354 375.513 209.759 377.097 214.233 378.514C215.199 378.823 216.173 379.116 217.146 379.409C217.355 379.471 217.564 379.532 217.772 379.594C232.604 383.973 247.937 386.433 263.396 386.915C264.2 386.938 264.988 386.954 265.753 386.969C266.024 386.977 266.287 386.985 266.549 386.985C267.415 386.992 268.273 387 269.138 387C270.885 387 272.623 386.974 274.354 386.923C287.166 386.562 299.904 384.843 312.351 381.793C312.266 376.662 312.034 370.668 311.702 364.265C311.548 361.125 308.078 357.723 307.869 354.436C307.722 351.968 310.837 349.646 310.674 347.138C309.623 331.701 308.31 337.627 307.336 326.696C307.236 325.623 307.143 324.597 307.058 323.617C306.432 316.597 305.999 312.207 305.999 312.207L310.157 286.047L316.687 244.974L316.184 244.149L315.62 243.871L281.178 226.853L279.308 222.07C278.763 220.692 277.818 219.508 276.593 218.671C275.369 217.833 273.922 217.381 272.438 217.371L249.749 217.279C248.572 217.273 247.41 217.549 246.361 218.081C245.311 218.614 244.404 219.389 243.714 220.341L237.571 228.835L196.931 254.849Z"/><path id="Vector_95" fill="#484662" d="M221.389 306.792L216.25 317.77L212.742 325.268L206.706 356.814L203.685 360.015L201.096 348.681L174.001 354.687C173.112 349.758 173.763 354.854 173.215 349.446C173.369 349.292 173.531 349.137 173.694 348.983C174.126 348.582 174.49 348.204 174.482 347.841C174.173 329.187 175.1 297.442 182.843 278.209C184.056 275.069 185.655 272.091 187.603 269.345C187.758 269.137 187.905 268.928 188.052 268.72C191.622 263.729 193.878 258.814 197.078 255.32V255.312C197.098 255.296 197.116 255.278 197.132 255.258C197.143 255.252 197.154 255.244 197.163 255.235L219.14 243.601L220.083 270.047L220.755 289.056L221.389 306.792Z"/><path id="Vector_96" fill="#484662" d="M300.636 309.91L307.055 323.621L309.295 328.396L315.329 359.939L318.34 363.132L320.935 351.801L322.154 351.552L344.142 347.005L350.551 367.325C351.995 364.922 352.564 362.095 352.162 359.322C351.759 356.549 350.41 354 348.342 352.105C347.904 351.71 347.539 351.325 347.55 350.961C347.914 329.02 346.57 288.958 334.43 272.469C330.574 267.236 328.261 262.024 324.895 258.383C324.885 258.373 324.885 258.362 324.874 258.362L316.684 244.973L316.183 244.152L315.621 243.871L300.636 309.91Z"/><path id="Ellipse_5" fill="#FFB6B6" d="M261.749 210.833C278.419 210.833 291.933 197.342 291.933 180.699C291.933 164.057 278.419 150.566 261.749 150.566C245.079 150.566 231.565 164.057 231.565 180.699C231.565 197.342 245.079 210.833 261.749 210.833Z"/><path id="Vector_97" fill="#745A35" d="M302.547 159.651C302.313 159.402 302.031 159.202 301.718 159.064C301.404 158.925 301.067 158.852 300.724 158.847L301.178 157.589C301.326 157.193 301.366 156.764 301.294 156.347C301.222 155.931 301.04 155.541 300.767 155.217C300.494 154.894 300.14 154.649 299.741 154.507C299.342 154.365 298.912 154.332 298.496 154.41L296.843 154.728L296.999 153.626C297.058 153.215 297.01 152.796 296.858 152.41C296.707 152.024 296.457 151.684 296.134 151.423C295.81 151.162 295.425 150.99 295.014 150.923C294.604 150.857 294.184 150.898 293.794 151.042C293.44 151.182 293.059 151.24 292.679 151.213C292.3 151.186 291.931 151.075 291.6 150.887C291.267 150.705 290.979 150.453 290.754 150.148C290.529 149.843 290.374 149.493 290.299 149.122L289.723 146.349L289.662 146.2C286.858 141.534 281.466 138.139 274.868 136.895C268.994 135.779 262.972 136.347 257.167 136.881C254.864 137.098 252.262 137.341 250.095 138.667C248.252 139.803 246.694 142.075 247.012 144.368C241.288 142.616 235.151 146.112 232.109 150.522C228.506 155.77 227.916 162.343 227.821 167.482C227.564 179.642 230.077 189.59 235.273 197.056C235.652 197.597 235.747 198.726 236.499 199.105L236.343 198.855C237.183 199.274 238.037 199.95 237.718 200.674C236.804 202.757 242.88 207.362 247.161 208.884C254.972 211.663 265.357 211.426 272.659 210.426L272.917 208.701C275.552 208.343 277.408 207.66 277.929 206.591C278.851 205.807 279.637 205.103 280.321 204.454L280.327 204.447C280.341 204.434 280.368 204.414 280.382 204.4C283.681 201.242 284.446 199.443 284.792 196.704C285.124 194.019 284.534 191.294 283.931 188.839C296.626 190.8 278.932 175.341 290.76 172.352C290.895 172.31 291.033 172.276 291.173 172.25C291.518 172.169 291.864 172.088 292.196 171.993C293.796 171.56 295.328 170.906 296.748 170.052C300.054 168.044 301.144 165.379 302.851 162.377C303.098 161.949 303.201 161.454 303.146 160.964C303.091 160.474 302.881 160.014 302.547 159.651Z"/><path id="Vector_98" fill="#3D3B53" d="M368.506 312.055C368.499 313.239 368.486 314.896 368.432 316.945C368.425 317.229 368.418 317.519 368.411 317.817C368.323 321.584 368.235 324.742 368.093 328.252C368.086 328.495 368.079 328.732 368.066 328.975C367.876 333.872 367.578 339.573 367.063 348.601C366.108 365.278 364.442 350.893 362.768 356.743C362.687 357.034 362.599 357.379 362.518 357.785C362.264 359.257 361.837 360.694 361.244 362.065C360.357 362.593 359.442 363.1 358.541 363.607C355.974 365.034 353.366 366.407 350.738 367.712C349.261 368.443 347.777 369.159 346.287 369.849C346.05 369.957 345.82 370.066 345.589 370.167C337.958 373.691 330.092 376.687 322.049 379.134C320.478 379.608 318.913 380.068 317.328 380.494C315.675 380.953 314.022 381.386 312.349 381.792C299.901 384.843 287.165 386.563 274.353 386.925C272.625 386.979 270.884 386.999 269.137 386.999C268.27 386.999 267.416 386.993 266.549 386.986C266.285 386.986 266.021 386.979 265.756 386.972C264.991 386.952 264.198 386.938 263.399 386.918C247.94 386.437 232.607 383.975 217.775 379.594L217.145 379.412C216.17 379.114 215.201 378.823 214.233 378.512C209.762 377.099 205.356 375.516 201.016 373.765C197.704 372.433 194.43 371.003 191.194 369.477C191.164 369.469 191.137 369.455 191.113 369.437C190.435 369.126 189.751 368.801 189.074 368.47C188.986 368.422 188.891 368.375 188.796 368.328C186.269 367.097 183.769 365.807 181.297 364.459C179.217 359.692 176.291 358.779 174.475 354.586C173.947 353.34 173.565 352.037 173.337 350.704C173.337 350.69 173.331 350.677 173.331 350.657C173.52 353.172 172.524 346.193 173.324 350.63C173.317 350.548 173.31 350.461 173.303 350.359C173.283 350.116 173.256 349.818 173.215 349.446C170.892 326.798 171.041 300.897 170.032 279.554C169.964 278.174 169.894 276.853 169.822 275.591C169.801 275.172 169.774 274.759 169.747 274.353C169.794 274.232 169.849 274.103 169.91 273.981C169.923 273.946 169.938 273.912 169.957 273.88C169.977 273.838 170 273.797 170.025 273.758C170.038 273.738 170.059 273.711 170.072 273.691C170.082 273.667 170.093 273.645 170.106 273.623C170.167 273.528 170.235 273.427 170.309 273.332C170.343 273.292 170.37 273.258 170.404 273.224C170.428 273.189 170.455 273.158 170.485 273.129C170.506 273.097 170.531 273.067 170.56 273.041C170.587 273.014 170.614 272.98 170.648 272.947C170.662 272.925 170.681 272.907 170.702 272.893C170.756 272.831 170.815 272.775 170.878 272.723C171.12 272.501 171.378 272.298 171.651 272.115C171.745 272.054 171.847 271.993 171.942 271.925C172.625 271.518 173.343 271.174 174.089 270.898C174.347 270.803 174.604 270.715 174.882 270.62C174.983 270.593 175.078 270.559 175.18 270.526C175.329 270.478 175.478 270.431 175.634 270.397C176.406 270.167 177.239 269.971 178.14 269.788C178.249 269.768 178.364 269.748 178.479 269.721C178.641 269.687 178.811 269.66 178.98 269.633C179.21 269.592 179.448 269.552 179.685 269.511C181.697 269.193 183.979 268.957 186.499 268.801C186.737 268.788 186.974 268.774 187.211 268.761C187.488 268.747 187.766 268.734 188.051 268.72C188.288 268.706 188.532 268.7 188.776 268.693C189.013 268.679 189.256 268.673 189.507 268.666C190.191 268.646 190.896 268.625 191.614 268.612C193.66 268.571 195.814 268.585 198.076 268.632C199.126 268.659 200.197 268.686 201.294 268.733C201.369 268.733 201.436 268.74 201.504 268.74C202.459 268.774 203.421 268.815 204.41 268.869C205.101 268.903 205.799 268.936 206.497 268.977C207.154 269.018 207.818 269.058 208.488 269.105C209.01 269.133 209.531 269.173 210.06 269.207C210.507 269.241 210.954 269.275 211.401 269.302L212.011 269.342C212.343 269.369 212.675 269.389 213.013 269.423C213.758 269.484 214.504 269.545 215.262 269.606C216.014 269.674 216.78 269.741 217.545 269.809C218.311 269.876 219.083 269.951 219.855 270.025C219.936 270.032 220.011 270.039 220.085 270.045C220.79 270.12 221.494 270.187 222.206 270.262C222.368 270.275 222.538 270.289 222.7 270.309C223.378 270.377 224.07 270.457 224.754 270.529C224.964 270.552 225.173 270.574 225.384 270.597C225.92 270.655 226.448 270.706 226.988 270.769C227.699 270.85 228.424 270.925 229.129 271.019C229.677 271.08 230.226 271.141 230.775 271.209C231.635 271.31 232.509 271.418 233.383 271.533C233.715 271.574 234.047 271.614 234.379 271.662C236.872 271.973 239.392 272.318 241.952 272.676C245.834 273.224 249.776 273.819 253.746 274.461C257.722 275.104 261.721 275.782 265.743 276.497C266.759 276.68 267.775 276.862 268.798 277.052C269.259 277.139 269.719 277.227 270.18 277.315C270.966 277.457 271.751 277.606 272.537 277.755C273.323 277.904 274.109 278.052 274.895 278.208C275.829 278.391 276.771 278.573 277.706 278.756C283.864 279.973 289.987 281.271 295.962 282.631C296.944 282.854 297.927 283.084 298.902 283.307C300.853 283.76 302.786 284.22 304.701 284.687C305.229 284.808 305.751 284.937 306.272 285.065C307.573 285.39 308.874 285.715 310.154 286.046L310.377 286.107C311.319 286.337 312.24 286.573 313.162 286.817C315.336 287.385 317.474 287.96 319.577 288.541C320.972 288.927 322.352 289.317 323.716 289.711C325.755 290.3 327.753 290.895 329.697 291.497C330.178 291.645 330.659 291.794 331.133 291.936C332.556 292.376 333.958 292.822 335.32 293.268C336.403 293.62 337.46 293.979 338.503 294.337C339.547 294.695 340.57 295.054 341.572 295.412C342.216 295.642 342.852 295.886 343.489 296.116C344.404 296.454 345.305 296.792 346.185 297.13C346.456 297.231 346.72 297.34 346.985 297.441C347.154 297.515 347.317 297.576 347.479 297.644C347.798 297.772 348.123 297.894 348.434 298.023C348.753 298.144 349.064 298.273 349.376 298.408C349.681 298.53 349.992 298.658 350.29 298.787C350.595 298.909 350.893 299.037 351.191 299.172C351.442 299.274 351.686 299.382 351.923 299.49C352.404 299.7 352.885 299.909 353.352 300.126C353.583 300.234 353.813 300.335 354.043 300.444L354.572 300.687C354.646 300.728 354.721 300.762 354.795 300.795C354.964 300.877 355.141 300.964 355.31 301.046C355.703 301.228 356.089 301.424 356.468 301.607C356.976 301.864 357.471 302.121 357.945 302.371C358.426 302.628 358.893 302.885 359.341 303.135C359.415 303.176 359.483 303.216 359.557 303.257C359.659 303.311 359.761 303.372 359.862 303.426C360.208 303.622 360.54 303.825 360.872 304.021C361.522 304.42 362.138 304.812 362.714 305.205C362.843 305.293 362.965 305.38 363.093 305.462C363.52 305.766 363.927 306.063 364.306 306.368C364.306 306.375 364.306 306.375 364.313 306.375C364.441 306.469 364.563 306.571 364.685 306.665C364.787 306.76 364.895 306.841 364.997 306.936C365.349 307.24 365.674 307.531 365.972 307.828C366.072 307.92 366.167 308.017 366.257 308.119C366.296 308.152 366.333 308.188 366.365 308.228C366.501 308.363 366.623 308.498 366.738 308.633C366.756 308.652 366.772 308.672 366.785 308.694C366.948 308.883 367.097 309.073 367.239 309.262C367.307 309.357 367.381 309.452 367.442 309.546C367.524 309.661 367.605 309.783 367.673 309.898C367.734 309.993 367.788 310.094 367.842 310.189C367.986 310.432 368.108 310.688 368.208 310.953C368.284 311.132 368.345 311.318 368.391 311.507C368.442 311.687 368.481 311.87 368.506 312.055Z"/><path id="Vector_99" fill="#000" d="M368.506 312.055C368.499 313.239 368.486 314.896 368.431 316.945C368.425 317.229 368.411 317.519 368.404 317.817C368.337 320.691 368.235 324.242 368.093 328.252C368.086 328.495 368.079 328.732 368.066 328.975C367.876 333.872 367.578 339.573 367.063 348.601C366.108 365.278 364.441 350.893 362.768 356.743C358.121 353.889 353.027 350.9 347.581 347.83C346.599 347.275 345.607 346.719 344.607 346.16C333.714 340.093 321.548 333.736 308.846 327.44C308.345 327.19 307.837 326.94 307.336 326.696C278.241 312.339 246.484 298.374 220.756 289.055C215.791 287.257 211.049 285.633 206.591 284.206C197.202 281.211 189.087 279.114 182.841 278.208C176.338 277.261 171.847 277.599 170.032 279.554C169.964 278.174 169.894 276.853 169.822 275.591C169.794 275.172 169.767 274.759 169.74 274.353C169.782 274.242 169.836 274.136 169.889 274.029C169.896 274.013 169.902 273.997 169.91 273.981C169.923 273.946 169.938 273.912 169.957 273.88C169.977 273.838 170 273.797 170.025 273.758C170.047 273.71 170.074 273.665 170.106 273.623C170.167 273.528 170.235 273.427 170.309 273.332C170.364 273.261 170.423 273.193 170.485 273.129C170.506 273.097 170.531 273.067 170.56 273.041C170.587 273.014 170.614 272.98 170.648 272.947C170.662 272.925 170.681 272.907 170.702 272.893C170.756 272.831 170.815 272.775 170.878 272.723C171.12 272.501 171.378 272.298 171.651 272.115C171.745 272.054 171.847 271.993 171.942 271.925C172.624 271.518 173.343 271.174 174.089 270.898C174.347 270.803 174.604 270.715 174.882 270.62C174.983 270.593 175.078 270.559 175.18 270.526C175.329 270.478 175.478 270.431 175.634 270.397C176.406 270.167 177.239 269.971 178.14 269.788C178.411 269.734 178.696 269.68 178.98 269.633C179.21 269.592 179.448 269.552 179.685 269.511C181.697 269.193 183.979 268.957 186.499 268.801C186.736 268.788 186.974 268.774 187.211 268.761C187.488 268.747 187.766 268.733 188.051 268.72C188.288 268.706 188.532 268.7 188.775 268.693C189.013 268.679 189.256 268.673 189.507 268.666C190.191 268.646 190.896 268.625 191.614 268.612C193.66 268.578 195.814 268.591 198.076 268.639C199.126 268.659 200.197 268.693 201.294 268.74C201.362 268.74 201.436 268.747 201.504 268.747C202.459 268.774 203.428 268.821 204.41 268.869C205.101 268.903 205.799 268.936 206.496 268.977C207.154 269.017 207.817 269.058 208.488 269.105C209.01 269.132 209.531 269.173 210.06 269.207C210.507 269.241 210.954 269.274 211.401 269.302C211.936 269.342 212.471 269.383 213.013 269.423C213.758 269.484 214.503 269.545 215.262 269.606C216.014 269.673 216.78 269.741 217.545 269.809C218.311 269.876 219.083 269.951 219.855 270.025C219.936 270.032 220.011 270.039 220.085 270.045C220.79 270.12 221.494 270.187 222.206 270.262C226.148 270.661 230.206 271.127 234.379 271.662C236.872 271.98 239.396 272.32 241.952 272.683C245.834 273.231 249.776 273.826 253.746 274.461C257.722 275.104 261.721 275.782 265.743 276.497C266.759 276.68 267.775 276.862 268.798 277.052C270.044 277.281 271.291 277.516 272.537 277.755C273.323 277.904 274.109 278.052 274.895 278.208C275.829 278.391 276.771 278.573 277.706 278.756C283.864 279.973 289.987 281.271 295.962 282.631C296.944 282.854 297.927 283.084 298.902 283.307C300.853 283.76 302.786 284.22 304.701 284.687C305.229 284.815 305.751 284.944 306.272 285.072C307.58 285.397 308.873 285.721 310.154 286.046V286.053C310.228 286.066 310.303 286.087 310.377 286.107C311.312 286.344 312.24 286.58 313.161 286.824C315.336 287.392 317.474 287.964 319.577 288.541C320.972 288.934 322.354 289.319 323.716 289.711C325.755 290.306 327.753 290.902 329.697 291.497C330.178 291.645 330.659 291.794 331.133 291.936C332.556 292.383 333.951 292.827 335.32 293.268C336.403 293.62 337.46 293.979 338.503 294.337C339.547 294.695 340.57 295.054 341.572 295.412C342.222 295.642 342.859 295.879 343.489 296.109C344.41 296.447 345.305 296.785 346.185 297.13C346.456 297.231 346.72 297.34 346.985 297.441C347.479 297.63 347.96 297.827 348.434 298.023C348.753 298.144 349.064 298.273 349.376 298.408C349.681 298.53 349.992 298.658 350.29 298.787C350.595 298.909 350.893 299.037 351.191 299.172C351.442 299.274 351.686 299.382 351.923 299.49C352.404 299.7 352.885 299.909 353.352 300.126C353.583 300.234 353.813 300.336 354.043 300.444L354.572 300.687C354.646 300.728 354.721 300.762 354.795 300.795C355.371 301.066 355.926 301.336 356.468 301.607C356.976 301.864 357.471 302.121 357.945 302.371C358.507 302.669 359.042 302.959 359.557 303.257C359.659 303.311 359.761 303.372 359.862 303.426C360.208 303.622 360.54 303.825 360.871 304.021C361.522 304.42 362.138 304.812 362.714 305.205C363.283 305.597 363.811 305.982 364.306 306.368C364.306 306.375 364.306 306.375 364.313 306.375C364.55 306.564 364.78 306.753 364.997 306.936C365.349 307.24 365.674 307.531 365.972 307.829C366.072 307.92 366.167 308.017 366.257 308.119C366.296 308.152 366.333 308.188 366.365 308.228C366.508 308.383 366.65 308.539 366.785 308.694C366.948 308.884 367.097 309.073 367.239 309.262C367.307 309.357 367.381 309.452 367.442 309.546C367.524 309.661 367.605 309.783 367.673 309.898C367.734 309.993 367.788 310.094 367.842 310.189C367.986 310.432 368.108 310.688 368.208 310.953C368.282 311.133 368.343 311.318 368.391 311.507C368.442 311.687 368.481 311.87 368.506 312.055Z" opacity=".2"/></g><defs><clipPath id="clip0_203_226"><rect width="533" height="387" fill="#fff"/></clipPath></defs></svg>