<svg xmlns="http://www.w3.org/2000/svg" width="16" height="16" fill="none" viewBox="0 0 16 16"><path stroke="#fff" stroke-linecap="round" stroke-linejoin="round" stroke-opacity=".75" stroke-width="2" d="M7.036 4.1601L4.78066 1.55677C4.52066 1.25677 4.044 1.2581 3.742 1.56077L1.88733 3.41877C1.33533 3.97143 1.17733 4.7921 1.49666 5.4501C3.40441 9.40008 6.59003 12.5902 10.5373 14.5034C11.1947 14.8228 12.0147 14.6648 12.5667 14.1121L14.4387 12.2368C14.742 11.9334 14.7427 11.4541 14.44 11.1941L11.8267 8.95077C11.5533 8.7161 11.1287 8.74677 10.8547 9.02143L9.94533 9.9321C9.89878 9.98089 9.8375 10.0131 9.7709 10.0237C9.7043 10.0343 9.63606 10.0227 9.57666 9.99077C8.09029 9.13483 6.85732 7.90025 6.00333 6.41277C5.97135 6.35327 5.95977 6.28492 5.97036 6.21821C5.98096 6.15149 6.01315 6.0901 6.062 6.04343L6.96866 5.1361C7.24333 4.8601 7.27333 4.43343 7.036 4.15943V4.1601Z"/></svg>