<svg width="21" height="22" viewBox="0 0 21 22" fill="none" xmlns="http://www.w3.org/2000/svg">
<g clip-path="url(#clip0_10_67)">
<path fill-rule="evenodd" clip-rule="evenodd" d="M10.289 0.805878C4.6753 0.805878 0.128418 5.35276 0.128418 10.9665C0.128418 15.4626 3.0369 19.2601 7.07574 20.6064C7.58378 20.6953 7.77429 20.3905 7.77429 20.1238C7.77429 19.8824 7.76159 19.0823 7.76159 18.2313C5.20873 18.7013 4.54829 17.609 4.34508 17.0375C4.23077 16.7454 3.73544 15.8436 3.30361 15.6023C2.94799 15.4118 2.43996 14.9418 3.29091 14.9291C4.09106 14.9164 4.6626 15.6658 4.85311 15.9706C5.76756 17.5074 7.22815 17.0756 7.81239 16.8089C7.90129 16.1484 8.16801 15.7039 8.46013 15.4499C6.19939 15.1959 3.83705 14.3195 3.83705 10.4331C3.83705 9.3281 4.23077 8.41364 4.87851 7.7024C4.7769 7.44839 4.42128 6.40692 4.98012 5.00984C4.98012 5.00984 5.83107 4.74312 7.77429 6.0513C8.58714 5.82269 9.45079 5.70838 10.3144 5.70838C11.1781 5.70838 12.0417 5.82269 12.8546 6.0513C14.7978 4.73042 15.6488 5.00984 15.6488 5.00984C16.2076 6.40692 15.852 7.44839 15.7504 7.7024C16.3981 8.41364 16.7918 9.3154 16.7918 10.4331C16.7918 14.3322 14.4168 15.1959 12.1561 15.4499C12.5244 15.7674 12.8419 16.377 12.8419 17.3296C12.8419 18.6886 12.8292 19.7808 12.8292 20.1238C12.8292 20.3905 13.0197 20.708 13.5277 20.6064C15.5448 19.9254 17.2975 18.629 18.5392 16.8998C19.7809 15.1705 20.4491 13.0954 20.4497 10.9665C20.4497 5.35276 15.9028 0.805878 10.289 0.805878Z" fill="white"/>
</g>
<defs>
<clipPath id="clip0_10_67">
<rect width="20.3212" height="20.3212" fill="white" transform="translate(0.128418 0.805878)"/>
</clipPath>
</defs>
</svg>
