<svg xmlns="http://www.w3.org/2000/svg" width="9" height="13" fill="none" viewBox="0 0 9 13"><path fill="#fff" fill-opacity=".75" fill-rule="evenodd" d="M4.21934 13.1258C4.34366 13.1258 4.46289 13.0765 4.5508 12.9885C4.63871 12.9006 4.68809 12.7814 4.68809 12.6571V1.60115L7.63747 4.55146C7.72549 4.63948 7.84486 4.68893 7.96934 4.68893C8.09382 4.68893 8.2132 4.63948 8.30122 4.55146C8.38924 4.46344 8.43868 4.34407 8.43868 4.21959C8.43868 4.09511 8.38924 3.97573 8.30122 3.88771L4.55122 0.137713C4.50767 0.0940599 4.45595 0.059426 4.399 0.0357949C4.34205 0.0121639 4.281 0 4.21934 0C4.15768 0 4.09663 0.0121639 4.03969 0.0357949C3.98274 0.059426 3.93101 0.0940599 3.88747 0.137713L0.137467 3.88771C0.0938846 3.9313 0.0593132 3.98303 0.0357266 4.03998C0.0121399 4.09692 0 4.15795 0 4.21959C0 4.34407 0.0494483 4.46344 0.137467 4.55146C0.225486 4.63948 0.344865 4.68893 0.469342 4.68893C0.593819 4.68893 0.713198 4.63948 0.801217 4.55146L3.75059 1.60115V12.6571C3.75059 12.7814 3.79998 12.9006 3.88789 12.9885C3.97579 13.0765 4.09502 13.1258 4.21934 13.1258Z" clip-rule="evenodd"/></svg>