<svg width="15" height="15" viewBox="0 0 15 15" fill="none" xmlns="http://www.w3.org/2000/svg">
<g clip-path="url(#clip0_65_3)">
<path fill-rule="evenodd" clip-rule="evenodd" d="M8.21934 15.1258C8.34366 15.1258 8.46289 15.0765 8.5508 14.9885C8.63871 14.9006 8.68809 14.7814 8.68809 14.6571V3.60115L11.6375 6.55146C11.7255 6.63948 11.8449 6.68893 11.9693 6.68893C12.0938 6.68893 12.2132 6.63948 12.3012 6.55146C12.3892 6.46344 12.4387 6.34407 12.4387 6.21959C12.4387 6.09511 12.3892 5.97573 12.3012 5.88771L8.55122 2.13771C8.50767 2.09406 8.45595 2.05943 8.399 2.03579C8.34205 2.01216 8.281 2 8.21934 2C8.15768 2 8.09663 2.01216 8.03969 2.03579C7.98274 2.05943 7.93101 2.09406 7.88747 2.13771L4.13747 5.88771C4.09388 5.9313 4.05931 5.98303 4.03573 6.03998C4.01214 6.09692 4 6.15795 4 6.21959C4 6.34407 4.04945 6.46344 4.13747 6.55146C4.22549 6.63948 4.34486 6.68893 4.46934 6.68893C4.59382 6.68893 4.7132 6.63948 4.80122 6.55146L7.75059 3.60115V14.6571C7.75059 14.7814 7.79998 14.9006 7.88789 14.9885C7.97579 15.0765 8.09502 15.1258 8.21934 15.1258Z" fill="white" fill-opacity="0.75"/>
</g>
<defs>
<clipPath id="clip0_65_3">
<rect width="15" height="15" fill="white"/>
</clipPath>
</defs>
</svg>
