<svg width="26" height="26" viewBox="0 0 26 26" fill="none" xmlns="http://www.w3.org/2000/svg">
<path fill-rule="evenodd" clip-rule="evenodd" d="M13 1.625C13.2155 1.625 13.4222 1.7106 13.5746 1.86298C13.7269 2.01535 13.8125 2.22201 13.8125 2.4375V21.6011L18.9248 16.4873C19.0774 16.3347 19.2843 16.249 19.5 16.249C19.7158 16.249 19.9227 16.3347 20.0753 16.4873C20.2279 16.6398 20.3136 16.8467 20.3136 17.0625C20.3136 17.2783 20.2279 17.4852 20.0753 17.6378L13.5753 24.1378C13.4998 24.2134 13.4102 24.2734 13.3115 24.3144C13.2127 24.3554 13.1069 24.3765 13 24.3765C12.8932 24.3765 12.7874 24.3554 12.6886 24.3144C12.5899 24.2734 12.5003 24.2134 12.4248 24.1378L5.9248 17.6378C5.77223 17.4852 5.68652 17.2783 5.68652 17.0625C5.68652 16.8467 5.77223 16.6398 5.9248 16.4873C6.07737 16.3347 6.28429 16.249 6.50005 16.249C6.71581 16.249 6.92273 16.3347 7.0753 16.4873L12.1875 21.6011V2.4375C12.1875 2.22201 12.2732 2.01535 12.4255 1.86298C12.5779 1.7106 12.7846 1.625 13 1.625Z" fill="white"/>
</svg>
