<svg width="21" height="21" viewBox="0 0 21 21" fill="none" xmlns="http://www.w3.org/2000/svg">
<path d="M18.375 3.9375H2.625C2.2769 3.9375 1.94306 4.07578 1.69692 4.32192C1.45078 4.56806 1.3125 4.9019 1.3125 5.25V15.75C1.3125 16.0981 1.45078 16.4319 1.69692 16.6781C1.94306 16.9242 2.2769 17.0625 2.625 17.0625H18.375C18.7231 17.0625 19.0569 16.9242 19.3031 16.6781C19.5492 16.4319 19.6875 16.0981 19.6875 15.75V5.25C19.6875 4.9019 19.5492 4.56806 19.3031 4.32192C19.0569 4.07578 18.7231 3.9375 18.375 3.9375ZM16.9312 5.25L10.5 9.69937L4.06875 5.25H16.9312ZM2.625 15.75V5.84719L10.1259 11.0381C10.2358 11.1143 10.3663 11.1552 10.5 11.1552C10.6337 11.1552 10.7642 11.1143 10.8741 11.0381L18.375 5.84719V15.75H2.625Z" fill="white" fill-opacity="0.75"/>
</svg>
