<svg width="22" height="22" viewBox="0 0 22 22" fill="none" xmlns="http://www.w3.org/2000/svg">
<path d="M10.9665 1.21228C5.57932 1.21228 1.21228 5.57932 1.21228 10.9665C1.21228 16.3536 5.57932 20.7207 10.9665 20.7207C16.3536 20.7207 20.7207 16.3536 20.7207 10.9665C20.7207 5.57932 16.3536 1.21228 10.9665 1.21228ZM8.57873 15.0094H6.60351V8.6529H8.57873V15.0094ZM7.57893 7.87257C6.95506 7.87257 6.55169 7.43058 6.55169 6.88394C6.55169 6.32612 6.96726 5.89734 7.60433 5.89734C8.2414 5.89734 8.63157 6.32612 8.64376 6.88394C8.64376 7.43058 8.2414 7.87257 7.57893 7.87257ZM15.7928 15.0094H13.8175V11.4867C13.8175 10.6667 13.531 10.1099 12.8167 10.1099C12.2711 10.1099 11.947 10.4869 11.8037 10.8496C11.7509 10.9787 11.7377 11.1616 11.7377 11.3434V15.0084H9.76143V10.6799C9.76143 9.8864 9.73603 9.22291 9.70961 8.65189H11.4257L11.5162 9.53485H11.5558C11.8159 9.12029 12.453 8.50862 13.5188 8.50862C14.8184 8.50862 15.7928 9.37939 15.7928 11.251V15.0094V15.0094Z" fill="white"/>
</svg>
