<svg width="20" height="20" viewBox="0 0 20 20" fill="none" xmlns="http://www.w3.org/2000/svg">
<path d="M4.74499 9.99991L1.91583 2.72491C1.71916 2.21907 2.21249 1.73491 2.70083 1.90741L2.77833 1.93991L17.7783 9.43991C17.8751 9.48822 17.9576 9.56079 18.0179 9.65055C18.0782 9.7403 18.1142 9.84416 18.1223 9.95198C18.1305 10.0598 18.1105 10.1679 18.0644 10.2657C18.0182 10.3635 17.9475 10.4476 17.8592 10.5099L17.7783 10.5582L2.77833 18.0582C2.29249 18.3007 1.76416 17.8541 1.89083 17.3516L1.91583 17.2724L4.74499 9.99991L1.91583 2.72491L4.74499 9.99991ZM3.66833 3.78324L5.84333 9.37491H11.3658C11.5169 9.37491 11.6628 9.42961 11.7766 9.52888C11.8904 9.62815 11.9645 9.76528 11.985 9.91491L11.9908 9.99991C11.9908 10.1511 11.936 10.2971 11.8365 10.4109C11.7371 10.5248 11.5998 10.5987 11.45 10.6191L11.3658 10.6249H5.84166L3.66749 16.2166L16.1017 9.99991L3.66749 3.78324H3.66833Z" fill="white"/>
</svg>
