<svg xmlns="http://www.w3.org/2000/svg" width="93.721" height="93.721"><defs><linearGradient id="b" x1="0" x2="1" y1="0" y2="0" gradientTransform="scale(1002.46657 -1002.46657) rotate(89.167 1.785 -.506)" gradientUnits="userSpaceOnUse" spreadMethod="pad"><stop offset="0" style="stop-opacity:1;stop-color:#e100ff"/><stop offset="1" style="stop-opacity:1;stop-color:#7f00ff"/></linearGradient><linearGradient id="d" x1="0" x2="1" y1="0" y2="0" gradientTransform="scale(42.2192 -42.2192) rotate(89.167 35.282 -5.073)" gradientUnits="userSpaceOnUse" spreadMethod="pad"><stop offset="0" style="stop-opacity:1;stop-color:#7f00ff"/><stop offset="1" style="stop-opacity:1;stop-color:#e100ff"/></linearGradient><linearGradient id="f" x1="0" x2="1" y1="0" y2="0" gradientTransform="scale(87.12637 -87.12637) rotate(89.167 17.084 -2.7)" gradientUnits="userSpaceOnUse" spreadMethod="pad"><stop offset="0" style="stop-opacity:1;stop-color:#e100ff"/><stop offset="1" style="stop-opacity:1;stop-color:#7f00ff"/></linearGradient><linearGradient id="h" x1="0" x2="1" y1="0" y2="0" gradientTransform="scale(27.92568 -27.92568) rotate(84.806 55.385 -6.315)" gradientUnits="userSpaceOnUse" spreadMethod="pad"><stop offset="0" style="stop-opacity:1;stop-color:#7f00ff"/><stop offset="1" style="stop-opacity:1;stop-color:#e100ff"/></linearGradient><linearGradient id="j" x1="0" x2="1" y1="0" y2="0" gradientTransform="scale(87.05762 -87.05762) rotate(89.167 17.129 -2.672)" gradientUnits="userSpaceOnUse" spreadMethod="pad"><stop offset="0" style="stop-opacity:1;stop-color:#e100ff"/><stop offset="1" style="stop-opacity:1;stop-color:#7f00ff"/></linearGradient><linearGradient id="l" x1="0" x2="1" y1="0" y2="0" gradientTransform="rotate(-90.833 1491.541 225.663) scale(87.12637)" gradientUnits="userSpaceOnUse" spreadMethod="pad"><stop offset="0" style="stop-opacity:1;stop-color:#e100ff"/><stop offset="1" style="stop-opacity:1;stop-color:#7f00ff"/></linearGradient><linearGradient id="n" x1="0" x2="1" y1="0" y2="0" gradientTransform="rotate(-95.194 1420.616 262.168) scale(27.9256)" gradientUnits="userSpaceOnUse" spreadMethod="pad"><stop offset="0" style="stop-opacity:1;stop-color:#7f00ff"/><stop offset="1" style="stop-opacity:1;stop-color:#e100ff"/></linearGradient><linearGradient id="p" x1="0" x2="1" y1="0" y2="0" gradientTransform="rotate(-90.833 1488.82 228.23) scale(87.05763)" gradientUnits="userSpaceOnUse" spreadMethod="pad"><stop offset="0" style="stop-opacity:1;stop-color:#e100ff"/><stop offset="1" style="stop-opacity:1;stop-color:#7f00ff"/></linearGradient><clipPath id="a" clipPathUnits="userSpaceOnUse"><path d="M1264.007 1694.367v-28.05h-.127c-.668-3.253-2.545-6.057-5.131-7.951 2.502-.252 4.279.169 4.279.169.325.079.645.171.951.27a8.6 8.6 0 0 1 .453.156c.15.05.291.107.441.171l.341.149a12.174 12.174 0 0 1 2.746 1.711c.086.064.171.135.257.213.304.255.589.525.851.795.15.15.291.313.434.468 1.483 1.719 2.384 3.884 2.513 6.149.014.177.021.355.021.539v25.211z"/></clipPath><clipPath id="c" clipPathUnits="userSpaceOnUse"><path d="M1244.409 1700.369v-25.707c0-.565.029-1.125.086-1.679.164-1.601.637-3.155 1.289-4.625a16.474 16.474 0 0 1 2.615-4.124c1.316-1.513 2.479-2.602 3.145-3.089a14.25 14.25 0 0 1 2.507-1.484 14.988 14.988 0 0 1 4.823-1.305c2.586 1.894 4.463 4.697 5.131 7.95h-3.217c-.873 0-1.704.136-2.485.377a8.59 8.59 0 0 0-2.18 1.05 8.428 8.428 0 0 0-3.031 3.678 8.466 8.466 0 0 0-.66 3.251v25.707z"/></clipPath><clipPath id="e" clipPathUnits="userSpaceOnUse"><path d="M1226.276 1700.535v-.001h-1.846l.017-22.039a21.707 21.707 0 0 1 11.827-10.767 8.464 8.464 0 0 0-2.953 3.541 8.312 8.312 0 0 0-.712 3.263l-.283 17.801 7.412.117-.131 8.085h-13.328z"/></clipPath><clipPath id="g" clipPathUnits="userSpaceOnUse"><path d="m1224.427 1700.534.014-22.037a21.705 21.705 0 0 1 11.829-10.77 8.497 8.497 0 0 0-2.955 3.543 8.268 8.268 0 0 0-.709 3.266l-.284 17.798 7.412.113-.129 8.087z"/></clipPath><clipPath id="i" clipPathUnits="userSpaceOnUse"><path d="M1224.507 1674.381a16.489 16.489 0 0 1 2.971-9.181c1.823-2.602 8.66-6.914 9.311-6.914 1.329 0 10.698.044 11.934.01.334-.01.668-.01 1.004 0h1.124a16.515 16.515 0 0 0-5.372 5.572 16.09 16.09 0 0 0-1.174 2.442c-2.597.057-5.243.148-5.653.267a8.32 8.32 0 0 0-2.217 1.02c-.056.037-.109.078-.164.115a21.709 21.709 0 0 0-11.827 10.768l.063-4.092z"/></clipPath><clipPath id="k" clipPathUnits="userSpaceOnUse"><path d="m1279.541 1700.512-.129-8.085 7.412-.116-.283-17.802a8.346 8.346 0 0 0-.712-3.262 8.482 8.482 0 0 0-2.954-3.542 21.707 21.707 0 0 1 11.828 10.768l.015 22.038h-1.845v.001h-13.329z"/></clipPath><clipPath id="m" clipPathUnits="userSpaceOnUse"><path d="m1279.54 1700.511-.128-8.085 7.412-.115-.284-17.798a8.233 8.233 0 0 0-.71-3.265 8.493 8.493 0 0 0-2.953-3.543 21.703 21.703 0 0 1 11.828 10.77l.013 22.036z"/></clipPath><clipPath id="o" clipPathUnits="userSpaceOnUse"><path d="M1282.875 1667.705c-.056-.037-.108-.078-.164-.115a8.32 8.32 0 0 0-2.217-1.02c-.409-.119-3.056-.21-5.653-.267a16.085 16.085 0 0 0-1.173-2.442 16.545 16.545 0 0 0-4.892-5.256 12.327 12.327 0 0 0-.481-.316h1.123c.337-.01.671 0 1.005 0 1.236.037 10.605-.01 11.935-.01.65 0 7.488 4.312 9.311 6.914a16.551 16.551 0 0 1 2.147 4.288c.507 1.546.794 3.194.822 4.893l.065 4.092a21.707 21.707 0 0 0-11.828-10.768"/></clipPath></defs><g clip-path="url(#a)" transform="matrix(1.33333 0 0 -1.33333 -1632.57 2286.07)"><path d="M1264.007 1694.367v-28.05h-.127c-.668-3.253-2.545-6.057-5.131-7.951 2.502-.252 4.279.169 4.279.169.325.079.645.171.951.27a8.6 8.6 0 0 1 .453.156c.15.05.291.107.441.171l.341.149a12.174 12.174 0 0 1 2.746 1.711c.086.064.171.135.257.213.304.255.589.525.851.795.15.15.291.313.434.468 1.483 1.719 2.384 3.884 2.513 6.149.014.177.021.355.021.539v25.211z" style="fill:url(#b);stroke:none"/></g><g clip-path="url(#c)" transform="matrix(1.33333 0 0 -1.33333 -1632.57 2286.07)"><path d="M1244.409 1700.369v-25.707c0-.565.029-1.125.086-1.679.164-1.601.637-3.155 1.289-4.625a16.474 16.474 0 0 1 2.615-4.124c1.316-1.513 2.479-2.602 3.145-3.089a14.25 14.25 0 0 1 2.507-1.484 14.988 14.988 0 0 1 4.823-1.305c2.586 1.894 4.463 4.697 5.131 7.95h-3.217c-.873 0-1.704.136-2.485.377a8.59 8.59 0 0 0-2.18 1.05 8.428 8.428 0 0 0-3.031 3.678 8.466 8.466 0 0 0-.66 3.251v25.707z" style="fill:url(#d);stroke:none"/></g><g clip-path="url(#e)" transform="matrix(1.33333 0 0 -1.33333 -1632.57 2286.07)"><path d="M1226.276 1700.535v-.001h-1.846l.017-22.039a21.707 21.707 0 0 1 11.827-10.767 8.464 8.464 0 0 0-2.953 3.541 8.312 8.312 0 0 0-.712 3.263l-.283 17.801 7.412.117-.131 8.085h-13.328z" style="fill:url(#f);stroke:none"/></g><g clip-path="url(#g)" transform="matrix(1.33333 0 0 -1.33333 -1632.57 2286.07)"><path d="m1224.427 1700.534.014-22.037a21.705 21.705 0 0 1 11.829-10.77 8.497 8.497 0 0 0-2.955 3.543 8.268 8.268 0 0 0-.709 3.266l-.284 17.798 7.412.113-.129 8.087z" style="fill:url(#h);stroke:none"/></g><g clip-path="url(#i)" transform="matrix(1.33333 0 0 -1.33333 -1632.57 2286.07)"><path d="M1224.507 1674.381a16.489 16.489 0 0 1 2.971-9.181c1.823-2.602 8.66-6.914 9.311-6.914 1.329 0 10.698.044 11.934.01.334-.01.668-.01 1.004 0h1.124a16.515 16.515 0 0 0-5.372 5.572 16.09 16.09 0 0 0-1.174 2.442c-2.597.057-5.243.148-5.653.267a8.32 8.32 0 0 0-2.217 1.02c-.056.037-.109.078-.164.115a21.709 21.709 0 0 0-11.827 10.768l.063-4.092z" style="fill:url(#j);stroke:none"/></g><g clip-path="url(#k)" transform="matrix(1.33333 0 0 -1.33333 -1632.57 2286.07)"><path d="m1279.541 1700.512-.129-8.085 7.412-.116-.283-17.802a8.346 8.346 0 0 0-.712-3.262 8.482 8.482 0 0 0-2.954-3.542 21.707 21.707 0 0 1 11.828 10.768l.015 22.038h-1.845v.001h-13.329z" style="fill:url(#l);stroke:none"/></g><g clip-path="url(#m)" transform="matrix(1.33333 0 0 -1.33333 -1632.57 2286.07)"><path d="m1279.54 1700.511-.128-8.085 7.412-.115-.284-17.798a8.233 8.233 0 0 0-.71-3.265 8.493 8.493 0 0 0-2.953-3.543 21.703 21.703 0 0 1 11.828 10.77l.013 22.036z" style="fill:url(#n);stroke:none"/></g><g clip-path="url(#o)" transform="matrix(1.33333 0 0 -1.33333 -1632.57 2286.07)"><path d="M1282.875 1667.705c-.056-.037-.108-.078-.164-.115a8.32 8.32 0 0 0-2.217-1.02c-.409-.119-3.056-.21-5.653-.267a16.085 16.085 0 0 0-1.173-2.442 16.545 16.545 0 0 0-4.892-5.256 12.327 12.327 0 0 0-.481-.316h1.123c.337-.01.671 0 1.005 0 1.236.037 10.605-.01 11.935-.01.65 0 7.488 4.312 9.311 6.914a16.551 16.551 0 0 1 2.147 4.288c.507 1.546.794 3.194.822 4.893l.065 4.092a21.707 21.707 0 0 0-11.828-10.768" style="fill:url(#p);stroke:none"/></g></svg>