<svg xmlns="http://www.w3.org/2000/svg" width="682.667" height="682.667" preserveAspectRatio="xMidYMid meet" version="1.0" viewBox="0 0 512 512"><metadata>Created by potrace 1.14, written by Peter Selinger 2001-2017</metadata><g fill="#000" stroke="none"><path d="M23 3108 c3 -541 7 -992 10 -1004 3 -12 8 -45 12 -75 16 -129 99 -344 176 -456 50 -73 124 -148 226 -230 111 -88 326 -234 404 -274 l56 -28 509 1 c433 0 505 2 489 14 -61 42 -89 67 -177 155 -104 103 -189 224 -240 339 l-31 70 -61 1 c-288 4 -349 12 -442 58 -145 72 -265 216 -314 376 -24 81 -25 108 -36 840 -4 270 -7 516 -8 547 l-1 57 195 1 c107 1 227 2 265 3 l70 2 -2 225 c-1 124 -2 255 -2 293 l-1 67 -551 0 -551 0 5 -982z" transform="translate(0.000000,512.000000) scale(0.100000,-0.100000)"/><path d="M3999 4023 c0 -38 -3 -170 -5 -295 l-5 -227 188 -1 c162 -1 274 -4 334 -9 13 -1 15 -15 13 -83 -1 -46 -5 -294 -9 -553 -11 -791 -8 -759 -77 -903 -54 -115 -152 -213 -269 -271 -46 -23 -102 -44 -124 -46 -40 -5 -218 -13 -325 -14 l-56 -1 -28 -62 c-55 -123 -163 -279 -251 -362 -16 -15 -64 -55 -105 -88 -41 -33 -77 -62 -78 -63 -2 -2 224 -4 503 -4 l507 0 57 28 c71 36 219 134 336 221 216 161 298 258 386 459 40 91 83 243 94 336 4 28 9 490 12 1028 l5 977 -551 0 -551 0 -1 -67z" transform="translate(0.000000,512.000000) scale(0.100000,-0.100000)"/><path d="M1468 4066 c-7 -20 -1 -1960 6 -1996 56 -284 154 -471 365 -692 220 -232 485 -341 806 -333 143 3 209 17 320 67 190 86 343 234 425 412 71 152 69 121 67 1176 l-2 945 -287 0 -288 0 0 -1012 0 -1013 -137 0 c-76 0 -166 5 -200 10 -189 31 -362 165 -441 341 -58 128 -56 94 -57 1139 l0 965 -287 1 c-208 2 -288 -1 -290 -10z" transform="translate(0.000000,512.000000) scale(0.100000,-0.100000)"/></g></svg>