<svg xmlns="http://www.w3.org/2000/svg" width="16" height="24" fill="none" viewBox="0 0 16 24"><path fill="#fff" fill-rule="evenodd" d="M8.00005 0.625C8.21554 0.625 8.4222 0.710602 8.57457 0.862976C8.72695 1.01535 8.81255 1.22201 8.81255 1.4375V20.6011L13.9248 15.4873C14.0774 15.3347 14.2843 15.249 14.5 15.249C14.7158 15.249 14.9227 15.3347 15.0753 15.4873C15.2279 15.6398 15.3136 15.8467 15.3136 16.0625C15.3136 16.2783 15.2279 16.4852 15.0753 16.6378L8.5753 23.1378C8.49983 23.2134 8.41016 23.2734 8.31145 23.3144C8.21274 23.3554 8.10692 23.3765 8.00005 23.3765C7.89318 23.3765 7.78736 23.3554 7.68865 23.3144C7.58993 23.2734 7.50027 23.2134 7.4248 23.1378L0.9248 16.6378C0.772234 16.4852 0.686523 16.2783 0.686523 16.0625C0.686523 15.8467 0.772234 15.6398 0.9248 15.4873C1.07737 15.3347 1.28429 15.249 1.50005 15.249C1.71581 15.249 1.92273 15.3347 2.0753 15.4873L7.18755 20.6011V1.4375C7.18755 1.22201 7.27315 1.01535 7.42553 0.862976C7.5779 0.710602 7.78456 0.625 8.00005 0.625Z" clip-rule="evenodd"/></svg>