<svg xmlns="http://www.w3.org/2000/svg" width="19" height="15" fill="none" viewBox="0 0 19 15"><path fill="#fff" fill-opacity=".75" d="M17.375 0.9375H1.625C1.2769 0.9375 0.943064 1.07578 0.696922 1.32192C0.450781 1.56806 0.3125 1.9019 0.3125 2.25V12.75C0.3125 13.0981 0.450781 13.4319 0.696922 13.6781C0.943064 13.9242 1.2769 14.0625 1.625 14.0625H17.375C17.7231 14.0625 18.0569 13.9242 18.3031 13.6781C18.5492 13.4319 18.6875 13.0981 18.6875 12.75V2.25C18.6875 1.9019 18.5492 1.56806 18.3031 1.32192C18.0569 1.07578 17.7231 0.9375 17.375 0.9375ZM15.9312 2.25L9.5 6.69937L3.06875 2.25H15.9312ZM1.625 12.75V2.84719L9.12594 8.03813C9.23579 8.11433 9.3663 8.15517 9.5 8.15517C9.6337 8.15517 9.76421 8.11433 9.87406 8.03813L17.375 2.84719V12.75H1.625Z"/></svg>