<svg xmlns="http://www.w3.org/2000/svg" width="20" height="20" fill="none" viewBox="0 0 20 20"><path fill="#fff" d="M9.96648 0.21228C4.57932 0.21228 0.21228 4.57932 0.21228 9.96648C0.21228 15.3536 4.57932 19.7207 9.96648 19.7207C15.3536 19.7207 19.7207 15.3536 19.7207 9.96648C19.7207 4.57932 15.3536 0.21228 9.96648 0.21228ZM7.57873 14.0094H5.60351V7.6529H7.57873V14.0094ZM6.57893 6.87257C5.95506 6.87257 5.55169 6.43058 5.55169 5.88394C5.55169 5.32612 5.96726 4.89734 6.60433 4.89734C7.2414 4.89734 7.63157 5.32612 7.64376 5.88394C7.64376 6.43058 7.2414 6.87257 6.57893 6.87257ZM14.7928 14.0094H12.8175V10.4867C12.8175 9.66674 12.531 9.10994 11.8167 9.10994C11.2711 9.10994 10.947 9.4869 10.8037 9.84963C10.7509 9.97867 10.7377 10.1616 10.7377 10.3434V14.0084H8.76143V9.67995C8.76143 8.8864 8.73603 8.22291 8.70961 7.65189H10.4257L10.5162 8.53485H10.5558C10.8159 8.12029 11.453 7.50862 12.5188 7.50862C13.8184 7.50862 14.7928 8.37939 14.7928 10.251V14.0094V14.0094Z"/></svg>