<svg xmlns="http://www.w3.org/2000/svg" width="18" height="18" fill="none" viewBox="0 0 18 18"><path fill="#fff" d="M3.74499 8.99991L0.915828 1.72491C0.719161 1.21907 1.21249 0.734908 1.70083 0.907408L1.77833 0.939908L16.7783 8.43991C16.8751 8.48822 16.9576 8.56079 17.0179 8.65055C17.0782 8.7403 17.1142 8.84416 17.1223 8.95198C17.1305 9.05979 17.1105 9.16788 17.0644 9.26567C17.0182 9.36346 16.9475 9.44762 16.8592 9.50991L16.7783 9.55824L1.77833 17.0582C1.29249 17.3007 0.764161 16.8541 0.890828 16.3516L0.915828 16.2724L3.74499 8.99991L0.915828 1.72491L3.74499 8.99991ZM2.66833 2.78324L4.84333 8.37491H10.3658C10.5169 8.37491 10.6628 8.42961 10.7766 8.52888C10.8904 8.62815 10.9645 8.76528 10.985 8.91491L10.9908 8.99991C10.9908 9.15106 10.936 9.29709 10.8365 9.41093C10.7371 9.52477 10.5998 9.59872 10.45 9.61907L10.3658 9.62491H4.84166L2.66749 15.2166L15.1017 8.99991L2.66749 2.78324H2.66833Z"/></svg>