<svg width="21" height="21" viewBox="0 0 21 21" fill="none" xmlns="http://www.w3.org/2000/svg">
<path d="M10.16 0C4.54932 0 0 4.54932 0 10.16C0 15.7707 4.54932 20.32 10.16 20.32C15.7707 20.32 20.32 15.7707 20.32 10.16C20.32 4.54932 15.7707 0 10.16 0ZM15.0427 7.65855C15.0495 7.76514 15.0495 7.87627 15.0495 7.98512C15.0495 11.3143 12.514 15.1493 7.8808 15.1493C6.45205 15.1493 5.12762 14.7343 4.01184 14.0199C4.21595 14.0426 4.41098 14.0516 4.61963 14.0516C5.79891 14.0516 6.88295 13.6525 7.747 12.9767C6.64029 12.954 5.71046 12.2283 5.39296 11.2304C5.78077 11.2871 6.13002 11.2871 6.52916 11.1851C5.95931 11.0693 5.44711 10.7598 5.07958 10.3092C4.71206 9.85856 4.51187 9.2946 4.51304 8.71311V8.68136C4.84641 8.86959 5.23875 8.98525 5.64923 9.00112C5.30416 8.77115 5.02117 8.45958 4.82534 8.09405C4.62952 7.72851 4.52692 7.32031 4.52664 6.90562C4.52664 6.43618 4.64911 6.00755 4.86909 5.63562C5.5016 6.41426 6.29088 7.05109 7.18563 7.50471C8.08037 7.95834 9.06056 8.21861 10.0625 8.26861C9.70643 6.55637 10.9855 5.17071 12.5231 5.17071C13.2488 5.17071 13.902 5.47461 14.3623 5.96446C14.9316 5.85787 15.4759 5.6447 15.9612 5.35895C15.7729 5.94179 15.3783 6.43391 14.8545 6.74461C15.3625 6.69018 15.8523 6.54957 16.3059 6.35227C15.9634 6.85573 15.5348 7.3025 15.0427 7.65855V7.65855Z" fill="white"/>
</svg>
